<svg width="24" height="24" viewBox="0 0 24 24" fill="none" xmlns="http://www.w3.org/2000/svg">
<path d="M5.00006 20.2499C5.19006 20.2499 5.38006 20.1799 5.53006 20.0299L19.5301 6.02994C19.8201 5.73994 19.8201 5.25994 19.5301 4.96994C19.2401 4.67994 18.7601 4.67994 18.4701 4.96994L4.47006 18.9699C4.18006 19.2599 4.18006 19.7399 4.47006 20.0299C4.62006 20.1799 4.81006 20.2499 5.00006 20.2499Z" fill="#E2BFFD"/>
<path d="M19 16.52C19.41 16.52 19.75 16.18 19.75 15.77V5.5C19.75 5.09 19.41 4.75 19 4.75H8.73C8.32 4.75 7.98 5.09 7.98 5.5C7.98 5.91 8.32 6.25 8.73 6.25H18.25V15.77C18.25 16.18 18.59 16.52 19 16.52Z" fill="#E2BFFD"/>
</svg>
