<svg width="20" height="20" viewBox="0 0 20 20" fill="none" xmlns="http://www.w3.org/2000/svg">
<path d="M4.16672 16.8749C4.32505 16.8749 4.48338 16.8166 4.60838 16.6916L16.275 5.02491C16.5167 4.78324 16.5167 4.38324 16.275 4.14158C16.0334 3.89991 15.6334 3.89991 15.3917 4.14158L3.72505 15.8082C3.48338 16.0499 3.48338 16.4499 3.72505 16.6916C3.85005 16.8166 4.00838 16.8749 4.16672 16.8749Z" fill="white"/>
<path d="M15.8333 13.7667C16.1749 13.7667 16.4583 13.4834 16.4583 13.1417V4.58337C16.4583 4.24171 16.1749 3.95837 15.8333 3.95837H7.27492C6.93325 3.95837 6.64992 4.24171 6.64992 4.58337C6.64992 4.92504 6.93325 5.20837 7.27492 5.20837H15.2083V13.1417C15.2083 13.4834 15.4916 13.7667 15.8333 13.7667Z" fill="white"/>
</svg>
