<svg width="478" height="1024" viewBox="0 0 478 1024" fill="none" xmlns="http://www.w3.org/2000/svg">
<g style="mix-blend-mode:color-dodge" opacity="0.1">
<path d="M7.84598 787.815C2.37699 752.669 15.7859 717.951 37.596 690.689C61.1192 661.292 92.7801 640.435 127.604 626.64C166.513 611.235 207.794 603.287 248.482 594.09C284.261 586.01 319.348 576.222 353.183 561.967C414.825 536.018 471.228 498.311 519.658 452.327C568.451 405.982 609.27 351.162 639.449 291.12C669.363 231.603 688.834 166.864 695.259 100.548C696.049 92.3039 696.643 84.0596 697.038 75.7825C697.236 71.5454 690.646 71.5782 690.449 75.7825C687.253 143.149 670.22 209.564 641.986 270.788C613.718 332.046 574.48 388.245 526.873 436.101C479.464 483.761 423.72 523.176 362.342 550.865C329.331 565.744 294.935 576.452 259.749 584.762C219.094 594.353 177.714 601.71 138.245 615.669C102.565 628.282 69.4216 646.61 43.2626 674.234C19.8712 698.901 2.37699 730.302 0.20257 764.593C-0.324561 772.935 0.20257 781.278 1.48745 789.555C2.14637 793.727 8.5049 791.953 7.84598 787.815Z" fill="url(#paint0_linear_2214_8135)"/>
<path d="M682.641 71.7753C677.995 138.419 659.381 203.717 629.862 263.628C600.145 323.966 559.72 378.917 511.422 425.788C463.156 472.659 406.918 511.483 345.408 539.007C311.474 554.215 276.024 564.726 240.344 574.974C202.061 585.977 163.449 597.341 128.329 616.556C66.2588 650.486 14.4352 713.714 5.53981 785.154C4.4526 793.957 4.12314 802.825 4.51849 811.661C4.71617 815.865 11.3053 815.898 11.1076 811.661C7.84601 738.94 56.5728 669.504 116.073 631.436C150.369 609.495 189.311 596.685 228.187 585.32C264.493 574.711 300.964 564.89 335.887 550.241C397.693 524.358 454.557 487.209 503.844 441.981C553.098 396.752 594.972 343.345 626.534 284.452C657.833 226.118 678.951 162.364 686.858 96.6067C687.846 88.3296 688.637 80.0524 689.197 71.7753C689.526 67.571 682.904 67.571 682.641 71.7753Z" fill="url(#paint1_linear_2214_8135)"/>
<path d="M674.865 67.7353C668.639 134.281 647.949 199.02 616.749 258.044C585.088 317.922 542.819 372.019 493.203 418.168C443.652 464.25 386.557 502.516 324.553 529.843C254.972 560.521 177.78 575.696 117.852 625.162C90.1774 647.99 66.8518 676.237 48.501 706.981C29.7549 738.382 15.8189 773.198 10.251 809.394C8.96614 817.77 8.10955 826.211 7.7142 834.686C7.51652 838.923 14.1057 838.89 14.3033 834.686C15.9506 797.865 27.0863 761.866 43.7898 729.119C60.4274 696.47 82.5999 666.449 109.385 641.355C137.553 614.947 171.191 596.159 206.739 581.51C242.321 566.828 279.286 555.759 314.834 541.077C377.102 515.326 434.658 478.801 485.131 434.328C535.801 389.69 579.487 336.907 613.059 278.343C646.104 220.698 669.363 157.109 678.687 91.2529C679.807 83.4356 680.73 75.6183 681.455 67.7353C681.85 63.531 675.228 63.5638 674.865 67.7353Z" fill="url(#paint2_linear_2214_8135)"/>
<path d="M667.09 63.7281C659.117 130.339 636.121 194.619 603.011 252.854C569.274 312.174 525.226 365.483 474.391 411.04C423.654 456.499 365.867 494.403 303.435 521.862C268.315 537.332 232.437 551.292 198.734 569.751C166.117 587.619 136.927 610.086 112.218 637.873C63.9197 692.135 28.7336 760.947 14.8305 832.222C13.1832 840.664 11.8654 849.171 10.877 857.711C10.3828 861.915 16.972 861.849 17.4662 857.711C26.1309 784.497 59.3402 712.926 105.596 655.84C128.955 627.001 156.332 602.531 188.224 583.382C221.104 563.642 256.718 549.124 291.838 534.015C323.499 520.417 354.205 505.242 383.526 487.144C412.617 469.21 440.292 448.977 466.286 426.839C518.077 382.727 563.41 330.699 598.925 272.66C633.683 215.936 659.084 153.036 670.22 87.3442C671.538 79.4941 672.658 71.6111 673.614 63.7281C674.174 59.5238 667.584 59.5566 667.09 63.7281Z" fill="url(#paint3_linear_2214_8135)"/>
<path d="M659.414 58.8013C649.464 125.708 624.228 189.528 589.173 247.205C553.296 306.262 507.369 359.078 455.216 404.405C429.123 427.102 401.383 447.893 372.259 466.582C342.871 485.469 311.968 501.005 280.768 516.672C247.724 533.259 214.943 550.832 185.522 573.298C156.761 595.272 132.644 621.878 111.559 651.143C68.2355 711.382 36.6406 781.377 19.5747 853.506C17.4991 862.211 15.6871 870.98 14.1057 879.783C13.3479 883.922 19.7065 885.695 20.4642 881.524C33.7743 807.686 63.2937 736.05 104.344 673.248C124.046 643.096 146.778 614.421 174.156 590.838C202.127 566.762 234.15 548.04 266.832 531.092C298.23 514.8 330.286 499.954 360.563 481.593C389.819 463.856 417.757 443.952 444.179 422.24C497.749 378.26 545.29 326.561 583.342 268.653C620.109 212.684 648.08 150.343 661.489 84.6509C663.137 76.6365 664.52 68.5893 665.739 60.5092C666.398 56.4363 660.04 54.6298 659.414 58.8013Z" fill="url(#paint4_linear_2214_8135)"/>
<path d="M651.638 54.7941C639.514 121.898 611.642 185.192 574.611 242.245C536.23 301.368 488.129 354.085 434.328 399.643C407.774 422.142 379.704 442.868 350.383 461.655C320.501 480.805 288.774 496.833 258.794 515.818C228.846 534.77 200.315 556.219 175.671 581.806C150.83 607.622 130.173 637.479 111.757 668.092C72.782 732.831 43.4603 803.909 23.8246 876.794C21.4855 885.433 19.311 894.137 17.3013 902.841C16.3459 906.947 22.7044 908.72 23.6599 904.582C40.8575 830.711 68.4331 758.779 105.299 692.463C122.892 660.833 142.66 629.826 166.15 602.137C189.608 574.481 217.546 551.16 247.625 530.96C277.177 511.088 308.838 494.928 339.181 476.436C368.701 458.437 396.968 438.466 423.885 416.788C478.41 372.873 527.433 321.765 567.594 264.449C606.569 208.808 637.307 146.631 653.055 80.381C654.933 72.498 656.58 64.5493 658.03 56.5349C658.755 52.3963 652.396 50.6226 651.638 54.7941Z" fill="url(#paint5_linear_2214_8135)"/>
<path d="M643.863 50.754C629.268 118.285 598.398 181.316 559.193 237.975C518.373 296.999 468.329 349.651 413.21 395.635C386.228 418.135 357.894 439.058 328.408 458.207C298.856 477.356 269.139 495.749 241.925 518.183C214.679 540.683 190.102 566.269 169.313 594.845C148.162 623.914 129.943 655.216 113.338 687.044C78.0205 754.706 50.0495 826.343 28.0747 899.359C25.4391 908.162 22.8693 916.964 20.4313 925.833C19.3111 929.906 25.6367 931.647 26.7898 927.574C47.315 853.835 73.9681 781.475 107.738 712.696C139.629 647.727 177.385 584.466 231.712 535.624C258.267 511.778 287.588 491.479 317.865 472.659C347.187 454.429 375.389 434.393 402.404 412.879C458.082 368.505 508.72 317.528 551.187 260.376C592.27 205.064 625.875 143.215 644.292 76.6365C646.499 68.655 648.476 60.5749 650.222 52.462C651.112 48.3562 644.753 46.6154 643.863 50.754Z" fill="url(#paint6_linear_2214_8135)"/>
<path d="M636.088 46.714C618.693 114.639 584.726 177.309 543.478 233.673C500.484 292.401 449.055 344.954 393.245 391.595C366.164 414.259 337.666 434.755 308.871 455.152C280.439 475.319 253.786 498.016 230.131 523.635C180.877 576.944 146.515 642.308 116.04 707.539C83.5553 777.107 56.3421 849.105 32.2917 921.957C29.3596 930.891 26.4603 939.858 23.5941 948.825C22.3092 952.865 28.6677 954.606 29.9526 950.566C53.4429 876.663 80.0301 803.581 111.724 732.765C127.044 698.54 143.582 664.84 161.9 632.092C179.46 600.725 198.602 570.375 221.861 542.883C244.363 516.311 269.995 492.432 297.736 471.411C311.77 460.769 326.497 451.046 340.763 440.733C354.863 430.518 368.734 419.941 382.307 409.004C439.007 363.446 491.292 311.977 535.9 254.497C578.4 199.776 614.377 138.945 635.462 72.7279C638.032 64.6807 640.338 56.6006 642.414 48.422C643.501 44.3491 637.142 42.6083 636.088 46.714Z" fill="url(#paint7_linear_2214_8135)"/>
<path d="M628.313 42.6739C608.019 110.041 571.548 171.692 528.982 227.399C484.274 285.897 432.022 338.648 376.113 386.504C362.836 397.869 349.329 408.938 335.59 419.744C321.654 430.682 307.422 441.225 294.079 452.918C268.117 475.648 244.989 501.399 224.728 529.285C203.643 558.354 186.148 589.623 169.84 621.549C152.313 655.84 136.203 690.854 120.949 726.229C89.9468 798.194 62.503 871.637 36.2123 945.442C33.0825 954.245 29.9526 963.08 26.8228 971.883C25.4061 975.89 31.7646 977.598 33.1813 973.624C59.2414 899.721 86.191 826.047 116.402 753.688C131.491 717.525 147.437 681.723 164.701 646.512C180.679 613.896 197.515 581.477 217.579 551.16C236.819 522.059 259.024 494.994 284.261 470.852C309.662 446.546 338.555 426.412 365.571 404.011C421.941 357.337 474.654 305.802 520.581 248.782C564.596 194.159 603.044 133.952 627.028 67.801C629.829 60.0822 632.398 52.2977 634.77 44.4476C635.891 40.3747 629.532 38.6339 628.313 42.6739Z" fill="url(#paint8_linear_2214_8135)"/>
<path d="M620.538 38.6339C596.751 106.132 557.15 167.488 512.674 223.228C466.582 281.003 414.265 333.754 359.048 382.858C332.559 406.409 304.654 428.218 280.966 454.725C258.201 480.213 238.697 508.428 221.664 537.989C203.214 570.047 187.532 603.615 172.344 637.282C156.464 672.46 141.441 708.065 126.912 743.834C96.8654 817.869 68.8945 892.691 40.4623 967.317C36.9701 976.481 33.4778 985.645 29.9526 994.842C28.4371 998.784 34.7956 1000.49 36.3111 996.583C64.8422 922.22 92.5495 847.561 122.036 773.592C136.894 736.345 152.148 699.262 168.292 662.541C183.216 628.578 198.569 594.681 215.997 561.901C232.536 530.796 251.315 500.742 273.652 473.414C284.623 460.013 296.385 447.269 308.937 435.346C321.588 423.324 335.228 412.387 348.406 400.956C403.953 352.804 456.699 301.072 503.778 244.544C549.375 189.823 590.458 130.11 617.836 64.1223C621.098 56.2722 624.129 48.3563 626.929 40.3419C628.313 36.4004 621.955 34.6924 620.538 38.6339Z" fill="url(#paint9_linear_2214_8135)"/>
<path d="M612.763 34.6267C585.187 101.731 542.885 162.397 497.024 218.268C449.681 275.945 397.298 329.352 343.003 380.493C330.22 392.548 317.141 404.274 305.28 417.215C293.518 430.058 282.646 443.722 272.631 457.944C252.402 486.684 235.831 517.789 220.972 549.584C188.191 619.71 160.385 692.266 132.414 764.363C103.059 839.941 74.4293 915.815 44.0534 990.999C40.4293 999.966 36.8053 1008.9 33.1154 1017.83C31.501 1021.74 37.8925 1023.45 39.4739 1019.57C70.1134 945.081 98.7104 869.765 127.736 794.614C156.332 720.612 184.929 646.479 217.117 573.955C231.449 541.635 247.032 509.742 265.976 479.819C285.018 449.667 307.586 422.438 333.745 398.164C387.776 347.976 440.061 295.718 487.832 239.519C534.912 184.141 578.73 124.46 609.534 58.4071C612.927 51.1481 616.123 43.7907 619.187 36.3675C620.736 32.4588 614.377 30.7509 612.763 34.6267Z" fill="url(#paint10_linear_2214_8135)"/>
<path d="M605.317 29.7984C573.722 95.7856 529.542 155.401 482.891 211.469C435.119 268.85 383.493 322.947 331.34 376.388C280.768 428.186 250.129 493.023 223.805 559.503C194.385 633.768 167.007 708.853 138.838 783.643C109.912 860.437 80.5243 937.099 48.4022 1012.64C44.5146 1021.81 40.5611 1030.94 36.6076 1040.07C34.9274 1043.91 40.5941 1047.26 42.3072 1043.39C74.7258 968.959 104.278 893.348 133.073 817.474C161.736 741.896 189.575 666.022 218.699 590.608C244.792 523.044 272.005 454.068 319.941 398.46C331.67 384.862 344.551 372.315 357.038 359.439C369.59 346.465 382.11 333.425 394.497 320.287C420.755 292.467 446.551 264.219 471.425 235.216C519.23 179.444 564.893 120.584 599.617 55.6809C603.571 48.2577 607.393 40.736 611.017 33.1486C612.829 29.3057 607.162 25.9882 605.317 29.7984Z" fill="url(#paint11_linear_2214_8135)"/>
<path d="M597.542 25.7583C561.301 90.6945 514.98 149.751 467.34 206.64C442.73 236.037 417.46 264.909 392.059 293.616C379.803 307.477 367.482 321.305 355.193 335.133C343.332 348.501 331.143 361.64 320.172 375.731C274.509 434.393 250.623 505.373 226.507 574.678C199.788 651.439 173.168 728.199 144.999 804.435C116.303 882.148 86.0592 959.336 52.3886 1035.05C48.2375 1044.41 44.0204 1053.73 39.7704 1063.03C38.0243 1066.84 43.691 1070.19 45.47 1066.35C79.7336 991.557 110.439 915.191 139.398 838.2C168.193 761.702 195.208 684.58 222.092 607.392C246.67 536.741 268.579 463.002 310.551 400.234C330.879 369.786 356.741 343.279 380.989 315.984C406.226 287.572 431.429 259.062 456.073 230.125C504.371 173.466 551.582 115.033 590.294 51.3124C594.741 43.9549 599.057 36.5646 603.241 29.0429C605.317 25.397 599.617 22.0796 597.542 25.7583Z" fill="url(#paint12_linear_2214_8135)"/>
<path d="M589.767 21.7511C548.486 85.0451 500.352 143.741 452.152 201.878C427.542 231.538 402.734 261.033 378.189 290.759C354.929 318.907 330.549 346.794 311.606 378.063C271.84 443.656 252.995 519.431 230.164 591.889C205.422 670.391 179.493 748.564 151.16 825.85C122.365 904.516 91.0999 982.36 55.9138 1058.43C51.6309 1067.66 47.315 1076.89 42.9003 1086.05C41.0882 1089.86 46.7549 1093.18 48.5999 1089.37C84.346 1014.58 116.139 937.953 145.329 860.404C174.453 783.052 201.007 704.747 226.21 626.016C238.236 588.408 249.635 550.635 261.594 512.993C273.257 476.403 286.04 440.043 303.633 405.785C312.199 389.066 321.918 372.906 332.922 357.666C343.827 342.556 355.885 328.236 367.679 313.816C391.763 284.321 416.241 255.187 440.621 225.954C489.282 167.554 538.108 108.924 581.234 46.287C586.077 39.258 590.821 32.1633 595.499 25.0029C597.772 21.4884 592.073 18.2038 589.767 21.7511Z" fill="url(#paint13_linear_2214_8135)"/>
<path d="M581.991 17.7111C535.142 78.9358 485.361 137.828 436.931 197.772C412.881 227.563 389.094 257.519 366.164 288.164C343.234 318.776 321.456 349.586 305.379 384.435C289.203 419.514 277.573 456.433 267.162 493.582C256.389 532.011 246.241 570.572 235.106 608.904C211.747 689.343 186.082 769.125 157.288 847.824C128.328 926.95 96.2393 1004.99 59.8013 1081C55.2878 1090.39 50.7083 1099.78 46.063 1109.11C44.1851 1112.89 49.8847 1116.21 51.7626 1112.43C88.9913 1037.44 121.871 960.387 151.522 882.115C181.173 803.876 207.53 724.422 231.547 644.278C243.243 605.225 254.28 566.007 264.922 526.657C275.036 489.213 285.315 451.67 299.35 415.441C313.549 378.818 332.394 345.48 355.456 313.718C378.123 282.481 401.844 252.066 425.96 221.947C474.325 161.445 524.369 102.256 572.108 41.2287C577.346 34.5282 582.551 27.7948 587.724 21.0614C590.261 17.6454 584.561 14.3937 581.991 17.7111Z" fill="url(#paint14_linear_2214_8135)"/>
<path d="M574.743 13.0141C522.821 70.4286 472.414 129.223 425.071 190.48C401.053 221.552 377.86 253.249 356.28 286.029C334.635 318.875 316.745 353.001 303.468 390.051C289.894 427.956 280.373 467.173 271.148 506.293C261.66 546.496 251.743 586.601 240.904 626.476C218.567 708.426 193.034 789.523 163.745 869.272C134.358 949.285 101.115 1027.95 63.2937 1104.35C58.6813 1113.65 54.036 1122.88 49.2918 1132.1C47.348 1135.85 53.0476 1139.2 54.9914 1135.42C93.5049 1060.37 127.472 983.05 157.617 904.319C187.796 825.489 214.185 745.181 237.313 664.019C248.745 623.947 259.453 583.645 269.205 543.146C278.693 503.829 287.292 464.25 298.889 425.459C310.387 386.997 324.982 349.355 345.77 314.9C365.472 282.219 387.842 251.015 410.641 220.436C457.951 157.01 509.115 96.4097 561.829 37.3529C567.693 30.7837 573.59 24.2474 579.487 17.711C582.255 14.525 577.61 9.86089 574.743 13.0141Z" fill="url(#paint15_linear_2214_8135)"/>
<path d="M566.968 8.97406C509.017 62.677 457.094 123.179 411.003 187.261C388.04 219.187 366.526 252.23 347.549 286.686C327.914 322.291 313.978 360.589 303.27 399.708C292.267 439.846 284.458 480.739 275.991 521.468C267.36 562.952 257.673 604.239 246.999 645.264C225.486 728.101 200.051 809.92 170.301 890.162C140.387 970.897 106.156 1050.06 67.0495 1126.82C62.2394 1136.28 57.3305 1145.7 52.3886 1155.06C50.4119 1158.81 56.1115 1162.13 58.0882 1158.38C97.7549 1083.36 132.71 1005.94 163.416 926.851C194.451 846.97 221.104 765.447 243.803 682.839C255.005 642.078 265.218 601.086 274.476 559.832C283.569 519.398 291.015 478.604 300.404 438.236C309.827 397.672 321.292 357.337 338.522 319.334C354.666 283.697 375.85 250.128 397.726 217.775C442.664 151.328 494.323 88.8551 551.648 32.6559C558.205 26.2181 564.893 19.8789 571.613 13.6382C574.743 10.7477 570.065 6.11648 566.968 8.97406Z" fill="url(#paint16_linear_2214_8135)"/>
<path d="M559.852 4.44141C496.859 52.6591 444.179 114.212 400.889 180.298C378.914 213.801 358.883 249.012 343.135 285.865C326.53 324.688 315.296 365.483 306.4 406.704C297.274 449.01 290.52 491.775 282.449 534.278C274.344 576.879 264.954 619.25 254.478 661.292C233.458 745.608 207.761 828.773 177.319 910.165C146.712 992.017 111.263 1072.06 70.7723 1149.51C65.7645 1159.07 60.6909 1168.6 55.5514 1178.09C53.5417 1181.8 59.2083 1185.12 61.251 1181.41C102.334 1105.73 138.575 1027.46 170.104 947.347C201.83 866.743 228.78 784.3 251.117 700.642C262.121 659.387 272.038 617.805 280.768 576.025C289.598 533.949 296.615 491.578 304.555 449.338C312.396 407.46 321.423 365.68 335.096 325.28C348.241 286.423 366.493 249.636 387.414 214.359C428.299 145.383 479.365 80.9394 540.381 28.6159C547.794 22.2439 555.404 16.0688 563.179 10.1237C566.507 7.56176 563.245 1.84659 559.852 4.44141Z" fill="url(#paint17_linear_2214_8135)"/>
<path d="M552.077 0.401335C485.296 41.7871 432.681 103.767 393.377 171.035C373.148 205.622 356.148 242.245 343.267 280.182C328.672 323.177 319.216 367.684 311.441 412.354C303.699 456.893 297.604 501.727 289.763 546.234C282.119 589.524 273.125 632.618 262.813 675.351C242.057 761.472 215.997 846.313 184.699 929.183C153.236 1012.48 116.468 1093.77 74.4293 1172.31C69.2568 1181.93 64.0185 1191.52 58.7142 1201.08C56.6716 1204.79 62.3382 1208.11 64.4138 1204.4C106.914 1128 144.373 1048.84 176.792 967.678C209.375 886.057 236.819 802.398 259.057 717.36C270.193 674.759 280.011 631.863 288.511 588.67C297.175 544.69 303.929 500.381 310.914 456.105C317.865 411.993 325.377 367.848 336.809 324.623C347.714 283.368 362.705 243.461 382.077 205.425C417.955 135.036 467.604 68.8849 531.881 21.9154C539.524 16.3316 547.365 11.0762 555.404 6.08366C558.995 3.85015 555.701 -1.83218 552.077 0.401335Z" fill="url(#paint18_linear_2214_8135)"/>
<path d="M544.301 -3.63872C475.313 29.9626 423.819 90.2675 389.127 157.47C348.406 236.366 331.307 324.261 318.656 411.336C311.836 458.272 306.17 505.406 298.625 552.244C291.377 597.079 282.58 641.684 272.301 685.927C251.71 774.414 225.123 861.521 192.803 946.427C160.319 1031.76 121.97 1114.89 78.1192 1195.04C72.8149 1204.76 67.3789 1214.45 61.9099 1224.07C59.8014 1227.75 65.501 1231.07 67.6095 1227.39C111.922 1149.38 151.028 1068.48 184.6 985.317C218.468 901.396 246.703 815.208 268.974 727.51C291.542 638.695 306.466 548.763 318.788 458.042C331.044 367.881 343.827 275.781 380.298 191.564C410.575 121.635 457.193 55.878 523.15 15.4447C531.09 10.5507 539.294 6.1165 547.695 2.01077C551.451 0.171402 548.123 -5.47808 544.301 -3.63872Z" fill="url(#paint19_linear_2214_8135)"/>
</g>
<defs>
<linearGradient id="paint0_linear_2214_8135" x1="1.63868" y1="432.292" x2="695.342" y2="432.292" gradientUnits="userSpaceOnUse">
<stop stop-color="#4EA4F9"/>
<stop offset="1" stop-color="#6F06C1"/>
</linearGradient>
<linearGradient id="paint1_linear_2214_8135" x1="6.00336" y1="441.74" x2="687.565" y2="441.74" gradientUnits="userSpaceOnUse">
<stop stop-color="#4EA4F9"/>
<stop offset="1" stop-color="#6F06C1"/>
</linearGradient>
<linearGradient id="paint2_linear_2214_8135" x1="9.34501" y1="451.231" x2="679.788" y2="451.231" gradientUnits="userSpaceOnUse">
<stop stop-color="#4EA4F9"/>
<stop offset="1" stop-color="#6F06C1"/>
</linearGradient>
<linearGradient id="paint3_linear_2214_8135" x1="12.5161" y1="460.707" x2="672.009" y2="460.707" gradientUnits="userSpaceOnUse">
<stop stop-color="#4EA4F9"/>
<stop offset="1" stop-color="#6F06C1"/>
</linearGradient>
<linearGradient id="paint4_linear_2214_8135" x1="15.692" y1="470.189" x2="664.228" y2="470.189" gradientUnits="userSpaceOnUse">
<stop stop-color="#4EA4F9"/>
<stop offset="1" stop-color="#6F06C1"/>
</linearGradient>
<linearGradient id="paint5_linear_2214_8135" x1="18.8699" y1="479.666" x2="656.445" y2="479.666" gradientUnits="userSpaceOnUse">
<stop stop-color="#4EA4F9"/>
<stop offset="1" stop-color="#6F06C1"/>
</linearGradient>
<linearGradient id="paint6_linear_2214_8135" x1="22.0489" y1="489.143" x2="648.66" y2="489.143" gradientUnits="userSpaceOnUse">
<stop stop-color="#4EA4F9"/>
<stop offset="1" stop-color="#6F06C1"/>
</linearGradient>
<linearGradient id="paint7_linear_2214_8135" x1="25.2272" y1="498.623" x2="640.871" y2="498.623" gradientUnits="userSpaceOnUse">
<stop stop-color="#4EA4F9"/>
<stop offset="1" stop-color="#6F06C1"/>
</linearGradient>
<linearGradient id="paint8_linear_2214_8135" x1="28.4051" y1="508.108" x2="633.078" y2="508.108" gradientUnits="userSpaceOnUse">
<stop stop-color="#4EA4F9"/>
<stop offset="1" stop-color="#6F06C1"/>
</linearGradient>
<linearGradient id="paint9_linear_2214_8135" x1="31.5818" y1="517.601" x2="625.28" y2="517.601" gradientUnits="userSpaceOnUse">
<stop stop-color="#4EA4F9"/>
<stop offset="1" stop-color="#6F06C1"/>
</linearGradient>
<linearGradient id="paint10_linear_2214_8135" x1="34.7577" y1="527.104" x2="617.476" y2="527.104" gradientUnits="userSpaceOnUse">
<stop stop-color="#4EA4F9"/>
<stop offset="1" stop-color="#6F06C1"/>
</linearGradient>
<linearGradient id="paint11_linear_2214_8135" x1="37.9324" y1="536.606" x2="609.663" y2="536.606" gradientUnits="userSpaceOnUse">
<stop stop-color="#4EA4F9"/>
<stop offset="1" stop-color="#6F06C1"/>
</linearGradient>
<linearGradient id="paint12_linear_2214_8135" x1="41.106" y1="546.119" x2="601.842" y2="546.119" gradientUnits="userSpaceOnUse">
<stop stop-color="#4EA4F9"/>
<stop offset="1" stop-color="#6F06C1"/>
</linearGradient>
<linearGradient id="paint13_linear_2214_8135" x1="44.279" y1="555.647" x2="594.008" y2="555.647" gradientUnits="userSpaceOnUse">
<stop stop-color="#4EA4F9"/>
<stop offset="1" stop-color="#6F06C1"/>
</linearGradient>
<linearGradient id="paint14_linear_2214_8135" x1="47.451" y1="565.191" x2="586.162" y2="565.191" gradientUnits="userSpaceOnUse">
<stop stop-color="#4EA4F9"/>
<stop offset="1" stop-color="#6F06C1"/>
</linearGradient>
<linearGradient id="paint15_linear_2214_8135" x1="50.6224" y1="574.505" x2="578.3" y2="574.505" gradientUnits="userSpaceOnUse">
<stop stop-color="#4EA4F9"/>
<stop offset="1" stop-color="#6F06C1"/>
</linearGradient>
<linearGradient id="paint16_linear_2214_8135" x1="53.7931" y1="584.054" x2="570.422" y2="584.054" gradientUnits="userSpaceOnUse">
<stop stop-color="#4EA4F9"/>
<stop offset="1" stop-color="#6F06C1"/>
</linearGradient>
<linearGradient id="paint17_linear_2214_8135" x1="56.9628" y1="593.402" x2="562.528" y2="593.402" gradientUnits="userSpaceOnUse">
<stop stop-color="#4EA4F9"/>
<stop offset="1" stop-color="#6F06C1"/>
</linearGradient>
<linearGradient id="paint18_linear_2214_8135" x1="60.1322" y1="602.951" x2="554.619" y2="602.951" gradientUnits="userSpaceOnUse">
<stop stop-color="#4EA4F9"/>
<stop offset="1" stop-color="#6F06C1"/>
</linearGradient>
<linearGradient id="paint19_linear_2214_8135" x1="63.3009" y1="612.504" x2="546.697" y2="612.504" gradientUnits="userSpaceOnUse">
<stop stop-color="#4EA4F9"/>
<stop offset="1" stop-color="#6F06C1"/>
</linearGradient>
</defs>
</svg>
