<svg width="276" height="595" viewBox="0 0 276 595" fill="none" xmlns="http://www.w3.org/2000/svg">
<g style="mix-blend-mode:color-dodge" opacity="0.1">
<path d="M5.4708 552.281C1.65741 527.768 11.0071 503.552 26.2147 484.537C42.6169 464.033 64.6932 449.486 88.9748 439.864C116.105 429.119 144.889 423.575 173.26 417.161C198.208 411.525 222.673 404.698 246.265 394.755C289.246 376.657 328.575 350.356 362.344 318.283C396.366 285.958 424.828 247.722 445.871 205.843C466.73 164.331 480.306 119.177 484.786 72.9223C485.337 67.1721 485.751 61.4218 486.026 55.6486C486.164 52.6933 481.57 52.7162 481.432 55.6486C479.204 102.636 467.327 148.959 447.64 191.662C427.93 234.389 400.57 273.587 367.375 306.966C334.318 340.208 295.449 367.699 252.652 387.012C229.634 397.39 205.651 404.858 181.116 410.654C152.769 417.344 123.915 422.476 96.3948 432.212C71.5159 441.009 48.4059 453.793 30.1659 473.06C13.8557 490.265 1.65741 512.166 0.141247 536.084C-0.226308 541.903 0.141247 547.722 1.03716 553.495C1.49661 556.405 5.93024 555.167 5.4708 552.281Z" fill="url(#paint0_linear_2214_10972)"/>
<path d="M475.988 52.8536C472.749 99.337 459.769 144.881 439.186 186.668C418.465 228.753 390.278 267.08 356.601 299.772C322.947 332.464 283.733 359.543 240.844 378.741C217.183 389.348 192.465 396.68 167.586 403.827C140.892 411.502 113.969 419.429 89.4802 432.831C46.2006 456.496 10.0653 500.597 3.86278 550.425C3.1047 556.565 2.87497 562.751 3.15064 568.913C3.28847 571.846 7.88292 571.869 7.74508 568.913C5.47083 518.192 39.4467 469.761 80.9345 443.209C104.849 427.905 132.002 418.97 159.109 411.044C184.424 403.644 209.855 396.794 234.205 386.576C277.301 368.524 316.951 342.613 351.317 311.067C385.661 279.52 414.859 242.269 436.866 201.193C458.69 160.505 473.415 116.038 478.928 70.1732C479.617 64.4 480.169 58.6268 480.559 52.8536C480.789 49.9212 476.171 49.9212 475.988 52.8536Z" fill="url(#paint1_linear_2214_10972)"/>
<path d="M470.566 50.0358C466.224 96.4505 451.798 141.605 430.043 182.774C407.967 224.538 378.494 262.27 343.897 294.457C309.347 326.599 269.536 353.289 226.303 372.35C177.785 393.747 123.962 404.331 82.1751 438.833C62.8785 454.755 46.6141 474.457 33.8186 495.901C20.7474 517.802 11.0302 542.086 7.14788 567.333C6.25196 573.174 5.65468 579.062 5.37902 584.973C5.24118 587.928 9.83563 587.905 9.97346 584.973C11.1221 559.291 18.8867 534.182 30.5336 511.342C42.1345 488.57 57.5948 467.63 76.2712 450.127C95.9125 431.708 119.367 418.604 144.154 408.386C168.964 398.146 194.739 390.425 219.526 380.185C262.943 362.224 303.076 336.748 338.269 305.729C373.6 274.595 404.062 237.779 427.47 196.932C450.511 156.725 466.73 112.373 473.231 66.439C474.012 60.9866 474.655 55.5341 475.161 50.0358C475.436 47.1034 470.819 47.1263 470.566 50.0358Z" fill="url(#paint2_linear_2214_10972)"/>
<path d="M465.145 47.2409C459.585 93.7014 443.551 138.535 420.464 179.154C396.94 220.528 366.226 257.711 330.78 289.486C295.403 321.193 255.11 347.63 211.578 366.783C187.089 377.573 162.072 387.31 138.572 400.185C115.829 412.648 95.476 428.318 78.2469 447.699C44.5696 485.546 20.0353 533.541 10.341 583.255C9.19241 589.142 8.27353 595.076 7.58436 601.033C7.23978 603.965 11.8342 603.919 12.1788 601.033C18.2205 549.967 41.3765 500.047 73.6294 460.231C89.9167 440.116 109.007 423.049 131.244 409.692C154.17 395.924 179.003 385.798 203.491 375.259C225.568 365.775 246.978 355.191 267.423 342.567C287.707 330.059 307.004 315.947 325.129 300.506C361.241 269.738 392.851 233.449 417.615 192.968C441.851 153.404 459.562 109.532 467.327 63.7128C468.246 58.2375 469.027 52.7392 469.693 47.2409C470.084 44.3085 465.489 44.3314 465.145 47.2409Z" fill="url(#paint3_linear_2214_10972)"/>
<path d="M459.792 43.8044C452.855 90.4711 435.258 134.984 410.815 175.213C385.799 216.405 353.775 253.243 317.41 284.858C299.216 300.689 279.874 315.19 259.566 328.226C239.075 341.399 217.527 352.235 195.773 363.163C172.732 374.732 149.874 386.989 129.36 402.659C109.305 417.985 92.4896 436.542 77.7874 456.954C47.579 498.971 25.5486 547.791 13.649 598.1C12.2018 604.171 10.9383 610.288 9.83563 616.428C9.30727 619.314 13.7409 620.551 14.2693 617.642C23.55 566.141 44.1331 516.176 72.7565 472.373C86.4939 451.342 102.345 431.342 121.435 414.893C140.938 398.1 163.267 385.042 186.055 373.22C207.948 361.857 230.3 351.502 251.411 338.696C271.811 326.324 291.291 312.441 309.715 297.298C347.068 266.622 380.216 230.563 406.749 190.173C432.386 151.135 451.89 107.653 461.239 61.8342C462.388 56.2443 463.353 50.6315 464.203 44.9957C464.662 42.1549 460.229 40.8949 459.792 43.8044Z" fill="url(#paint4_linear_2214_10972)"/>
<path d="M454.371 41.0095C445.917 87.8136 426.482 131.96 400.662 171.754C373.899 212.991 340.36 249.761 302.846 281.536C284.33 297.229 264.758 311.685 244.313 324.79C223.477 338.146 201.355 349.326 180.45 362.567C159.568 375.786 139.674 390.746 122.491 408.593C105.17 426.599 90.7666 447.424 77.9251 468.776C50.749 513.93 30.3038 563.507 16.6123 614.343C14.9813 620.368 13.4651 626.439 12.0638 632.51C11.3976 635.374 15.8313 636.611 16.4975 633.724C28.489 582.201 47.7167 532.029 73.4226 485.775C85.6898 463.713 99.4731 442.086 115.852 422.774C132.208 403.484 151.689 387.218 172.663 373.129C193.269 359.268 215.345 347.997 236.502 335.099C257.085 322.544 276.796 308.615 295.564 293.495C333.583 262.865 367.765 227.218 395.769 187.241C422.945 148.432 444.378 105.064 455.358 58.856C456.668 53.3577 457.817 47.8136 458.827 42.2237C459.333 39.3371 454.899 38.1 454.371 41.0095Z" fill="url(#paint5_linear_2214_10972)"/>
<path d="M448.949 38.1916C438.772 85.2935 417.248 129.257 389.911 168.776C361.448 209.944 326.553 246.668 288.121 278.741C269.307 294.434 249.55 309.028 228.99 322.384C208.384 335.74 187.663 348.57 168.688 364.217C149.69 379.91 132.553 397.756 118.057 417.688C103.309 437.963 90.6057 459.795 79.0277 481.995C54.4015 529.188 34.8981 579.154 19.5756 630.082C17.7379 636.221 15.946 642.361 14.2461 648.547C13.465 651.387 17.8757 652.602 18.6797 649.761C32.9914 598.329 51.5759 547.859 75.1224 499.887C97.3595 454.572 123.686 410.448 161.567 376.382C180.082 359.749 200.528 345.591 221.639 332.464C242.084 319.749 261.749 305.775 280.586 290.769C319.409 259.818 354.717 224.263 384.328 184.4C412.975 145.82 436.406 102.682 449.248 56.2443C450.787 50.6773 452.165 45.0415 453.383 39.3829C454.003 36.5192 449.569 35.305 448.949 38.1916Z" fill="url(#paint6_linear_2214_10972)"/>
<path d="M443.528 35.3737C431.399 82.7506 407.714 126.462 378.953 165.775C348.974 206.737 313.115 243.392 274.2 275.924C255.317 291.731 235.446 306.027 215.368 320.253C195.543 334.32 176.958 350.15 160.464 368.02C126.121 405.202 102.161 450.792 80.9116 496.29C58.261 544.812 39.286 595.03 22.5163 645.843C20.4718 652.075 18.4502 658.329 16.4516 664.583C15.5557 667.401 19.9893 668.615 20.8853 665.797C37.2644 614.251 55.803 563.277 77.9023 513.885C88.5843 490.013 100.116 466.508 112.889 443.667C125.133 421.788 138.48 400.62 154.698 381.445C170.388 362.911 188.261 346.256 207.603 331.594C217.389 324.171 227.658 317.39 237.605 310.196C247.437 303.071 257.108 295.694 266.573 288.066C306.108 256.29 342.565 220.391 373.669 180.299C403.304 142.132 428.389 99.7036 443.091 53.5181C444.883 47.9052 446.491 42.2695 447.939 36.565C448.697 33.7242 444.263 32.51 443.528 35.3737Z" fill="url(#paint7_linear_2214_10972)"/>
<path d="M438.107 32.5558C423.956 79.5432 398.525 122.544 368.845 161.399C337.672 202.201 301.238 238.993 262.254 272.373C252.996 280.299 243.578 288.02 233.998 295.557C224.281 303.186 214.357 310.54 205.053 318.696C186.951 334.549 170.825 352.51 156.697 371.96C141.995 392.235 129.796 414.045 118.425 436.313C106.204 460.231 94.9706 484.652 84.3345 509.326C62.7176 559.52 43.5818 610.746 25.25 662.224C23.0676 668.363 20.8852 674.526 18.7029 680.666C17.7151 683.461 22.1487 684.652 23.1365 681.88C41.3075 630.334 60.0988 578.948 81.1643 528.478C91.6856 503.255 102.804 478.283 114.842 453.724C125.983 430.975 137.722 408.363 151.712 387.218C165.128 366.92 180.611 348.043 198.208 331.204C215.919 314.251 236.066 300.208 254.903 284.583C294.209 252.029 330.964 216.084 362.987 176.313C393.678 138.214 420.487 96.2213 437.211 50.0816C439.163 44.6979 440.955 39.2683 442.609 33.7929C443.39 30.9522 438.956 29.7379 438.107 32.5558Z" fill="url(#paint8_linear_2214_10972)"/>
<path d="M432.685 29.738C416.099 76.8171 388.486 119.612 357.474 158.489C325.336 198.787 288.856 235.58 250.355 269.83C231.885 286.256 212.427 301.468 195.91 319.956C180.037 337.733 166.437 357.413 154.56 378.031C141.696 400.391 130.761 423.804 120.171 447.287C109.098 471.823 98.6231 496.657 88.4924 521.605C67.5417 573.243 48.0383 625.431 28.2133 677.481C25.7783 683.873 23.3432 690.265 20.8852 696.68C19.8285 699.429 24.2621 700.62 25.3188 697.894C45.2127 646.027 64.5324 593.953 85.0925 542.361C95.453 516.382 106.089 490.517 117.345 464.904C127.752 441.216 138.457 417.573 150.609 394.709C162.141 373.014 175.235 352.052 190.811 332.991C198.46 323.644 206.661 314.755 215.414 306.439C224.235 298.054 233.746 290.425 242.935 282.453C281.666 248.867 318.444 212.785 351.271 173.358C383.065 135.19 411.711 93.541 430.801 47.5158C433.075 42.0404 435.189 36.5192 437.142 30.9293C438.106 28.1802 433.673 26.9889 432.685 29.738Z" fill="url(#paint9_linear_2214_10972)"/>
<path d="M427.263 26.943C408.036 73.7471 378.539 116.061 346.562 155.03C313.551 195.259 277.025 232.51 239.167 268.18C230.254 276.588 221.134 284.767 212.864 293.793C204.663 302.751 197.082 312.281 190.098 322.201C175.993 342.247 164.438 363.942 154.078 386.118C131.221 435.03 111.832 485.637 92.3286 535.923C71.8604 588.638 51.8975 641.559 30.7172 693.999C28.1902 700.253 25.6633 706.485 23.0904 712.716C21.9648 715.442 26.4214 716.634 27.524 713.93C48.8882 661.972 68.8281 609.44 89.0666 557.023C109.006 505.408 128.946 453.701 151.39 403.117C161.383 380.574 172.249 358.329 185.458 337.458C198.736 316.428 214.472 297.436 232.712 280.505C270.386 245.5 306.843 209.051 340.153 169.853C372.98 131.227 403.533 89.6005 425.012 43.5295C427.378 38.4665 429.607 33.3348 431.743 28.1572C432.823 25.431 428.389 24.2397 427.263 26.943Z" fill="url(#paint10_linear_2214_10972)"/>
<path d="M422.072 23.5754C400.042 69.6006 369.236 111.181 336.707 150.288C303.397 190.311 267.4 228.043 231.035 265.317C195.773 301.445 174.409 346.668 156.054 393.037C135.54 444.835 116.45 497.207 96.8084 549.372C76.6388 602.934 56.1476 656.405 33.7497 709.096C31.039 715.488 28.2823 721.857 25.5257 728.226C24.3541 730.906 28.3053 733.243 29.4999 730.54C52.1045 678.627 72.7106 625.889 92.7883 572.968C112.774 520.254 132.186 467.333 152.493 414.732C170.687 367.607 189.662 319.497 223.087 280.712C231.265 271.227 240.247 262.476 248.953 253.495C257.706 244.446 266.435 235.351 275.073 226.187C293.382 206.783 311.369 187.081 328.713 166.851C362.046 127.951 393.885 86.8973 418.098 41.6281C420.854 36.4505 423.519 31.2043 426.046 25.9122C427.31 23.2317 423.358 20.9179 422.072 23.5754Z" fill="url(#paint11_linear_2214_10972)"/>
<path d="M416.65 20.7574C391.381 66.0495 359.082 107.241 325.864 146.92C308.704 167.424 291.084 187.562 273.373 207.584C264.827 217.252 256.235 226.897 247.667 236.542C239.397 245.866 230.897 255.03 223.247 264.858C191.408 305.775 174.753 355.282 157.937 403.621C139.307 457.161 120.745 510.7 101.104 563.873C81.0953 618.077 60.0068 671.914 36.5292 724.721C33.6347 731.25 30.6942 737.756 27.7308 744.24C26.5133 746.897 30.4645 749.234 31.705 746.553C55.5961 694.388 77.0062 641.124 97.1988 587.424C117.277 534.068 136.114 480.276 154.859 426.439C171.996 377.161 187.273 325.729 216.539 281.949C230.713 260.712 248.746 242.224 265.654 223.186C283.251 203.369 300.824 183.484 318.008 163.3C351.685 123.781 384.604 83.0255 411.596 38.581C414.698 33.4493 417.707 28.2946 420.625 23.0484C422.072 20.5054 418.098 18.1916 416.65 20.7574Z" fill="url(#paint12_linear_2214_10972)"/>
<path d="M411.229 17.9626C382.445 62.1092 348.882 103.048 315.274 143.598C298.114 164.286 280.816 184.858 263.701 205.591C247.483 225.225 230.484 244.675 217.275 266.485C189.547 312.235 176.407 365.087 160.487 415.626C143.235 470.379 125.156 524.904 105.4 578.81C85.3222 633.678 63.5216 687.974 38.9872 741.032C36.0008 747.47 32.9915 753.907 29.9132 760.299C28.6497 762.957 32.601 765.271 33.8874 762.613C58.8123 710.448 80.9804 657 101.334 602.911C121.641 548.959 140.157 494.343 157.731 439.429C166.115 413.197 174.064 386.851 182.403 360.597C190.535 335.076 199.448 309.715 211.715 285.82C217.688 274.16 224.465 262.888 232.138 252.258C239.741 241.72 248.149 231.731 256.373 221.674C273.166 201.101 290.234 180.78 307.234 160.391C341.164 119.658 375.208 78.7644 405.279 35.076C408.656 30.1733 411.964 25.2249 415.226 20.2306C416.811 17.7793 412.837 15.4883 411.229 17.9626Z" fill="url(#paint13_linear_2214_10972)"/>
<path d="M405.807 15.1446C373.141 57.8479 338.43 98.9246 304.661 140.734C287.891 161.513 271.305 182.407 255.316 203.781C239.328 225.133 224.143 246.622 212.933 270.929C201.653 295.397 193.544 321.147 186.285 347.058C178.773 373.862 171.698 400.757 163.933 427.493C147.646 483.598 129.75 539.245 109.673 594.137C89.4802 649.326 67.1052 703.759 41.698 756.771C38.5508 763.323 35.3576 769.875 32.1185 776.382C30.8091 779.016 34.7833 781.33 36.0927 778.696C62.0513 726.393 84.9776 672.647 105.653 618.054C126.328 563.484 144.705 508.066 161.452 452.166C169.607 424.927 177.303 397.573 184.723 370.127C191.775 344.011 198.943 317.825 208.729 292.556C218.63 267.012 231.77 243.759 247.851 221.605C263.655 199.818 280.195 178.604 297.011 157.596C330.734 115.397 365.629 74.1137 398.916 31.5478C402.568 26.8742 406.198 22.1778 409.805 17.4813C411.573 15.0988 407.599 12.8307 405.807 15.1446Z" fill="url(#paint14_linear_2214_10972)"/>
<path d="M400.754 11.8685C364.549 51.9143 329.402 92.9224 296.391 135.649C279.644 157.321 263.472 179.429 248.425 202.292C233.332 225.202 220.858 249.005 211.6 274.847C202.136 301.284 195.497 328.638 189.065 355.923C182.449 383.965 175.534 411.937 167.976 439.749C152.401 496.909 134.598 553.472 114.175 609.096C93.684 664.904 70.5051 719.772 44.133 773.06C40.9169 779.543 37.6778 785.981 34.3698 792.418C33.0144 795.03 36.9886 797.367 38.344 794.732C65.1985 742.384 88.8828 688.455 109.902 633.541C130.945 578.558 149.346 522.544 165.472 465.935C173.444 437.985 180.909 409.875 187.709 381.628C194.325 354.205 200.321 326.599 208.407 299.543C216.425 272.716 226.601 246.462 241.097 222.43C254.834 199.635 270.432 177.871 286.329 156.542C319.317 112.304 354.993 70.0358 391.748 28.8445C395.837 24.2626 399.949 19.7036 404.062 15.1446C405.991 12.9224 402.752 9.66922 400.754 11.8685Z" fill="url(#paint15_linear_2214_10972)"/>
<path d="M395.332 9.05076C354.924 46.5078 318.72 88.7071 286.582 133.404C270.57 155.672 255.569 178.719 242.337 202.751C228.646 227.585 218.928 254.297 211.462 281.582C203.79 309.578 198.345 338.1 192.441 366.508C186.423 395.443 179.669 424.24 172.226 452.854C157.225 510.632 139.491 567.699 118.747 623.667C97.8879 679.979 74.0198 735.19 46.7518 788.73C43.3978 795.328 39.975 801.903 36.5291 808.432C35.1508 811.044 39.125 813.358 40.5033 810.746C68.1618 758.421 92.5354 704.423 113.945 649.257C135.585 593.541 154.17 536.68 169.998 479.062C177.808 450.632 184.93 422.04 191.385 393.266C197.725 365.065 202.917 336.611 209.464 308.455C216.034 280.162 224.028 252.029 236.043 225.523C247.299 200.666 262.07 177.252 277.324 154.686C308.658 108.341 344.678 64.7667 384.65 25.5685C389.221 21.0782 393.885 16.6567 398.571 12.3039C400.753 10.2879 397.491 7.05763 395.332 9.05076Z" fill="url(#paint16_linear_2214_10972)"/>
<path d="M390.37 5.88921C346.447 39.5204 309.715 82.4528 279.529 128.547C264.207 151.914 250.24 176.473 239.259 202.178C227.681 229.257 219.847 257.711 213.645 286.462C207.282 315.969 202.572 345.798 196.944 375.442C191.293 405.156 184.746 434.709 177.441 464.034C162.784 522.842 144.866 580.849 123.64 637.619C102.299 694.709 77.5805 750.54 49.3477 804.56C45.8559 811.227 42.3182 817.871 38.7345 824.492C37.3332 827.081 41.2844 829.394 42.7087 826.806C71.355 774.022 96.6245 719.429 118.609 663.552C140.731 607.333 159.522 549.83 175.098 491.479C182.77 462.705 189.685 433.701 195.772 404.56C201.929 375.213 206.822 345.66 212.358 316.198C217.826 286.989 224.12 257.848 233.654 229.669C242.82 202.567 255.546 176.909 270.133 152.304C298.642 104.194 334.249 59.2455 376.793 22.7506C381.962 18.3062 387.269 13.9992 392.69 9.85256C395.01 8.06561 392.736 4.07936 390.37 5.88921Z" fill="url(#paint17_linear_2214_10972)"/>
<path d="M384.949 3.0713C338.384 31.9373 301.697 75.1675 274.292 122.086C260.187 146.21 248.333 171.754 239.351 198.214C229.174 228.203 222.581 259.245 217.16 290.402C211.761 321.468 207.511 352.739 202.044 383.782C196.714 413.976 190.443 444.034 183.253 473.839C168.78 533.908 150.609 593.083 128.786 650.883C106.847 708.982 81.2102 765.683 51.8977 820.46C48.2911 827.172 44.6385 833.862 40.9399 840.528C39.5157 843.117 43.4669 845.431 44.9141 842.842C74.5483 789.555 100.668 734.343 123.272 677.733C145.992 620.803 165.128 562.453 180.634 503.14C188.399 473.426 195.244 443.507 201.171 413.381C207.213 382.705 211.922 351.8 216.792 320.918C221.639 290.15 226.877 259.36 234.848 229.211C242.452 200.437 252.905 172.602 266.412 146.072C291.429 96.9774 326.048 50.8376 370.867 18.077C376.196 14.1824 381.664 10.5169 387.269 7.03465C389.773 5.4768 387.476 1.51345 384.949 3.0713Z" fill="url(#paint18_linear_2214_10972)"/>
<path d="M379.527 0.253438C331.423 23.6899 295.518 65.7517 271.328 112.625C242.934 167.653 231.012 228.959 222.191 289.692C217.435 322.43 213.484 355.305 208.223 387.974C203.17 419.245 197.036 450.357 189.869 481.216C175.511 542.934 156.972 603.69 134.437 662.911C111.786 722.43 85.0465 780.414 54.4705 836.313C50.7719 843.094 46.9815 849.853 43.1681 856.565C41.6979 859.131 45.6721 861.445 47.1423 858.879C78.0399 804.469 105.308 748.043 128.717 690.036C152.332 631.502 172.019 571.388 187.548 510.219C203.284 448.272 213.691 385.546 222.282 322.27C230.828 259.383 239.741 195.145 265.172 136.405C286.283 87.6303 318.789 41.7655 364.779 13.5639C370.315 10.1503 376.035 7.05756 381.893 4.19387C384.512 2.91094 382.192 -1.0295 379.527 0.253438Z" fill="url(#paint19_linear_2214_10972)"/>
</g>
<defs>
<linearGradient id="paint0_linear_2214_10972" x1="1.14261" y1="304.309" x2="484.844" y2="304.309" gradientUnits="userSpaceOnUse">
<stop stop-color="#4EA4F9"/>
<stop offset="1" stop-color="#6F06C1"/>
</linearGradient>
<linearGradient id="paint1_linear_2214_10972" x1="4.186" y1="310.899" x2="479.422" y2="310.899" gradientUnits="userSpaceOnUse">
<stop stop-color="#4EA4F9"/>
<stop offset="1" stop-color="#6F06C1"/>
</linearGradient>
<linearGradient id="paint2_linear_2214_10972" x1="6.51614" y1="317.519" x2="473.999" y2="317.519" gradientUnits="userSpaceOnUse">
<stop stop-color="#4EA4F9"/>
<stop offset="1" stop-color="#6F06C1"/>
</linearGradient>
<linearGradient id="paint3_linear_2214_10972" x1="8.72723" y1="324.128" x2="468.574" y2="324.128" gradientUnits="userSpaceOnUse">
<stop stop-color="#4EA4F9"/>
<stop offset="1" stop-color="#6F06C1"/>
</linearGradient>
<linearGradient id="paint4_linear_2214_10972" x1="10.9417" y1="330.741" x2="463.149" y2="330.741" gradientUnits="userSpaceOnUse">
<stop stop-color="#4EA4F9"/>
<stop offset="1" stop-color="#6F06C1"/>
</linearGradient>
<linearGradient id="paint5_linear_2214_10972" x1="13.1575" y1="337.352" x2="457.722" y2="337.352" gradientUnits="userSpaceOnUse">
<stop stop-color="#4EA4F9"/>
<stop offset="1" stop-color="#6F06C1"/>
</linearGradient>
<linearGradient id="paint6_linear_2214_10972" x1="15.374" y1="343.962" x2="452.293" y2="343.962" gradientUnits="userSpaceOnUse">
<stop stop-color="#4EA4F9"/>
<stop offset="1" stop-color="#6F06C1"/>
</linearGradient>
<linearGradient id="paint7_linear_2214_10972" x1="17.5904" y1="350.574" x2="446.863" y2="350.574" gradientUnits="userSpaceOnUse">
<stop stop-color="#4EA4F9"/>
<stop offset="1" stop-color="#6F06C1"/>
</linearGradient>
<linearGradient id="paint8_linear_2214_10972" x1="19.8062" y1="357.19" x2="441.429" y2="357.19" gradientUnits="userSpaceOnUse">
<stop stop-color="#4EA4F9"/>
<stop offset="1" stop-color="#6F06C1"/>
</linearGradient>
<linearGradient id="paint9_linear_2214_10972" x1="22.0211" y1="363.811" x2="435.991" y2="363.811" gradientUnits="userSpaceOnUse">
<stop stop-color="#4EA4F9"/>
<stop offset="1" stop-color="#6F06C1"/>
</linearGradient>
<linearGradient id="paint10_linear_2214_10972" x1="24.2356" y1="370.439" x2="430.55" y2="370.439" gradientUnits="userSpaceOnUse">
<stop stop-color="#4EA4F9"/>
<stop offset="1" stop-color="#6F06C1"/>
</linearGradient>
<linearGradient id="paint11_linear_2214_10972" x1="26.4494" y1="377.067" x2="425.102" y2="377.067" gradientUnits="userSpaceOnUse">
<stop stop-color="#4EA4F9"/>
<stop offset="1" stop-color="#6F06C1"/>
</linearGradient>
<linearGradient id="paint12_linear_2214_10972" x1="28.6621" y1="383.702" x2="419.648" y2="383.702" gradientUnits="userSpaceOnUse">
<stop stop-color="#4EA4F9"/>
<stop offset="1" stop-color="#6F06C1"/>
</linearGradient>
<linearGradient id="paint13_linear_2214_10972" x1="30.8746" y1="390.347" x2="414.187" y2="390.347" gradientUnits="userSpaceOnUse">
<stop stop-color="#4EA4F9"/>
<stop offset="1" stop-color="#6F06C1"/>
</linearGradient>
<linearGradient id="paint14_linear_2214_10972" x1="33.0864" y1="397.004" x2="408.715" y2="397.004" gradientUnits="userSpaceOnUse">
<stop stop-color="#4EA4F9"/>
<stop offset="1" stop-color="#6F06C1"/>
</linearGradient>
<linearGradient id="paint15_linear_2214_10972" x1="35.2976" y1="403.5" x2="403.234" y2="403.5" gradientUnits="userSpaceOnUse">
<stop stop-color="#4EA4F9"/>
<stop offset="1" stop-color="#6F06C1"/>
</linearGradient>
<linearGradient id="paint16_linear_2214_10972" x1="37.5084" y1="410.161" x2="397.74" y2="410.161" gradientUnits="userSpaceOnUse">
<stop stop-color="#4EA4F9"/>
<stop offset="1" stop-color="#6F06C1"/>
</linearGradient>
<linearGradient id="paint17_linear_2214_10972" x1="39.7186" y1="416.681" x2="392.236" y2="416.681" gradientUnits="userSpaceOnUse">
<stop stop-color="#4EA4F9"/>
<stop offset="1" stop-color="#6F06C1"/>
</linearGradient>
<linearGradient id="paint18_linear_2214_10972" x1="41.9287" y1="423.341" x2="386.721" y2="423.341" gradientUnits="userSpaceOnUse">
<stop stop-color="#4EA4F9"/>
<stop offset="1" stop-color="#6F06C1"/>
</linearGradient>
<linearGradient id="paint19_linear_2214_10972" x1="44.138" y1="430.004" x2="381.197" y2="430.004" gradientUnits="userSpaceOnUse">
<stop stop-color="#4EA4F9"/>
<stop offset="1" stop-color="#6F06C1"/>
</linearGradient>
</defs>
</svg>
