<svg width="581" height="750" viewBox="0 0 581 750" fill="none" xmlns="http://www.w3.org/2000/svg">
<g style="mix-blend-mode:color-dodge" opacity="0.2">
<path d="M-93.3848 597.446C-29.6517 603.187 38.0455 630.297 100.263 609.702C133.011 598.866 160.262 576.155 182.583 551.789C205.684 526.568 223.883 497.371 237.397 466.248C250.997 434.928 259.926 401.644 264.799 367.714C267.29 350.371 268.722 332.844 269.124 315.246C269.533 297.666 268.619 280.078 268.008 262.476C267.339 243.288 267.288 224.079 270.387 205.237C273.515 186.219 279.434 167.82 287.022 150.208C294.51 132.829 303.691 116.291 313.488 100.094C323.224 84.0021 333.287 67.732 338.095 49.3736C346.466 17.4063 337.349 -17.13 323.304 -47.4885C309.137 -78.1044 288.644 -106.245 263.449 -129.832C257.175 -135.704 250.596 -141.271 243.773 -146.566C243.05 -147.129 242.178 -146.095 242.906 -145.544C270.865 -123.857 294.415 -97.0357 311.67 -66.9832C328.666 -37.3784 341.7 -3.16027 339.664 30.2439C337.36 68.0215 311.332 97.9146 294.824 130.284C278.382 162.536 267.43 196.949 266.341 233.624C265.822 251.346 266.948 269.128 267.527 286.877C268.098 304.607 267.835 322.28 266.447 339.885C263.748 374.093 257.101 407.906 245.987 440.149C234.921 472.21 219.38 502.755 198.869 529.952C178.734 556.642 153.586 581.51 123.457 598.008C94.3706 613.941 61.3743 617.758 27.5083 614.693C-4.94311 611.749 -36.8593 603.892 -69.1164 599.036C-77.1426 597.824 -85.1833 596.824 -93.2469 596.092C-94.112 596.035 -94.2971 597.354 -93.3848 597.446Z" fill="url(#paint0_linear_2214_8082)"/>
<path d="M238.778 -141.629C266.864 -119.945 291.129 -93.7599 309.9 -64.3579C328.309 -35.522 343.215 -2.41165 343.891 31.1109C344.646 68.6045 323.051 100.038 307.726 132.413C292.042 165.578 280.795 199.878 277.303 236.729C273.93 272.305 275.197 308.302 270.841 343.77C266.665 377.713 258.958 411.166 246.815 442.975C234.807 474.405 218.41 504.228 196.929 530.389C175.374 556.649 148.378 580.71 116.493 595.291C56.3131 622.811 -11.8823 602.176 -75.6927 592.639C-83.6664 591.45 -91.6517 590.431 -99.657 589.636C-100.556 589.55 -100.733 590.887 -99.8158 590.967C-35.8626 597.241 31.1427 621.965 94.1786 604.861C127.465 595.834 155.815 575.148 179.289 551.898C203.502 527.919 222.7 499.582 237.204 469.123C251.956 438.132 261.935 404.985 268.13 371.135C271.24 354.092 273.391 336.849 274.654 319.496C276.003 301.014 276.104 282.424 276.924 263.901C277.762 244.875 279.176 225.78 282.954 207.205C286.778 188.345 292.961 170.091 300.374 152.417C307.608 135.117 316.214 118.502 324.744 101.811C332.972 85.7031 340.71 69.0746 343.845 51.0799C349.485 18.7525 338.628 -14.7643 323.143 -44.2928C307.246 -74.6282 285.517 -102.331 259.706 -125.867C253.273 -131.734 246.579 -137.323 239.677 -142.652C238.91 -143.219 238.056 -142.192 238.778 -141.629Z" fill="url(#paint1_linear_2214_8082)"/>
<path d="M234.645 -137.702C263.19 -115.745 288.424 -89.7783 308.704 -60.6511C328.464 -32.2615 345.177 0.0334974 348.082 33.814C351.285 71.0632 333.738 103.81 319.584 136.579C312.252 153.53 305.382 170.712 299.866 188.368C294.45 205.688 290.856 223.41 288.037 241.397C282.558 276.288 281.027 311.793 275.233 346.619C269.593 380.521 260.773 413.911 247.461 445.502C234.374 476.578 216.847 505.879 194.057 531.104C171.418 556.162 143.254 578.534 110.761 591.289C49.6947 615.258 -18.5688 595.746 -82.282 586.237C-90.211 585.052 -98.1541 584.008 -106.112 583.176C-107.024 583.084 -107.196 584.409 -106.271 584.506C-42.0522 591.246 24.5981 613.992 88.3131 599.591C122.203 591.935 151.641 573.05 176.374 550.743C201.549 528.03 221.691 500.643 237.121 470.924C252.842 440.647 263.764 408.057 271.215 374.726C275.036 357.629 277.948 340.324 280.085 322.9C282.289 304.893 283.538 286.746 285.697 268.734C287.976 249.768 290.628 230.732 294.856 212.164C299.176 193.17 305.537 174.76 312.731 156.728C319.709 139.229 327.804 122.246 335.135 104.901C342.077 88.5228 347.784 71.4313 349.44 53.535C352.454 20.8931 340.057 -11.6333 323.218 -40.4549C305.666 -70.5058 282.822 -97.8354 256.432 -121.404C249.683 -127.44 242.702 -133.196 235.512 -138.724C234.777 -139.292 233.91 -138.271 234.645 -137.702Z" fill="url(#paint2_linear_2214_8082)"/>
<path d="M230.505 -133.793C259.717 -111.398 286.033 -85.4415 307.889 -56.3848C328.813 -28.5519 347.127 2.72103 352.373 36.5023C355.022 53.5497 353.747 70.752 350.03 87.2535C345.945 105.388 338.643 122.483 331.857 139.687C325.081 156.867 318.366 174.087 312.635 191.663C306.984 208.983 302.888 226.676 298.929 244.485C294.939 262.472 291.196 280.537 288.328 298.779C285.701 315.464 283.193 332.129 279.724 348.636C272.711 381.998 262.948 414.831 248.788 445.789C234.732 476.545 216.195 505.405 192.235 529.77C168.124 554.303 138.228 575.67 104.458 586.95C42.6191 607.608 -25.3417 589.263 -89.0418 579.76C-96.8814 578.585 -104.73 577.538 -112.603 576.655C-113.51 576.551 -113.687 577.888 -112.762 577.986C-47.892 585.273 19.0969 606.562 83.661 593.829C117.634 587.128 147.473 570.08 173.242 549.012C199.73 527.368 221.047 500.581 237.54 471.18C254.25 441.392 266.077 409.124 274.731 376.114C283.704 341.873 287.706 306.716 294.573 272.008C298.305 253.18 302.243 234.311 307.028 215.753C311.892 196.909 318.391 178.574 325.305 160.434C338.053 127.023 354.51 94.019 355.165 57.301C355.744 24.5882 342.316 -6.82785 324.365 -34.9972C305.024 -65.3476 280.668 -92.899 253.19 -116.943C246.118 -123.133 238.826 -129.07 231.361 -134.79C230.644 -135.365 229.777 -134.344 230.505 -133.793Z" fill="url(#paint3_linear_2214_8082)"/>
<path d="M226.372 -129.866C256.189 -107.105 283.5 -81.2101 306.876 -52.38C329.206 -24.8374 349.329 5.79591 356.91 39.8082C360.499 55.9534 360.969 72.5902 358.986 88.6962C356.766 106.74 350.852 123.77 344.832 140.755C338.65 158.149 332.089 175.407 326.122 192.881C320.104 210.507 315.351 228.453 310.249 246.376C305.306 263.757 300.092 281.078 296.01 298.704C292.255 314.897 289.158 331.231 285.107 347.354C276.748 380.581 266.065 413.303 250.991 444.067C235.962 474.763 216.39 503.419 191.182 527.138C165.997 550.838 135.186 571.048 100.962 581.401C38.0052 600.435 -30.4544 583.125 -94.9425 573.424C-102.955 572.218 -110.998 571.115 -119.042 570.158C-119.949 570.054 -120.121 571.379 -119.201 571.488C-53.4477 579.292 14.2042 599.383 79.7918 587.811C114.445 581.699 145.227 565.601 172.139 545.061C199.57 524.12 221.853 498.017 239.237 468.829C256.927 439.119 269.613 406.745 279.399 373.645C289.39 339.862 295.142 304.988 304.654 271.084C309.879 252.485 314.853 233.746 320.396 215.242C325.86 197.024 332.391 179.155 338.897 161.304C345.069 144.401 351.74 127.496 356.305 110.053C360.567 93.8036 362.316 76.9103 361.185 59.927C358.953 26.5714 343.56 -4.419 323.816 -32.3063C302.734 -62.1035 277.284 -89.1848 249.195 -113.189C242.041 -119.298 234.714 -125.192 227.218 -130.911C226.504 -131.456 225.644 -130.417 226.372 -129.866Z" fill="url(#paint4_linear_2214_8082)"/>
<path d="M222.226 -125.944C252.934 -102.577 281.482 -76.477 306.555 -47.5631C329.787 -20.7642 351.194 8.60675 361.315 42.0211C366.258 58.3195 368.39 75.477 367.726 92.1731C367 110.3 362.15 127.503 356.719 144.569C351.047 162.404 344.568 179.976 338.394 197.636C332.25 215.193 327.048 233.059 320.944 250.633C314.981 267.773 308.368 284.688 303.135 302.089C298.311 318.122 294.356 334.417 289.506 350.439C279.706 382.818 267.971 414.732 251.987 444.575C235.575 475.221 214.461 503.584 187.46 526.331C161.212 548.459 130.238 567.038 95.9407 576.164C32.235 593.121 -36.1348 576.929 -100.988 567.098C-109.143 565.859 -117.309 564.717 -125.491 563.685C-126.393 563.569 -126.57 564.906 -125.65 565.015C-59.3608 573.272 8.5991 592.156 74.8643 581.929C109.178 576.631 140.211 562.32 167.714 543.145C197.009 522.725 221.18 497.198 240.121 467.625C258.584 438.792 272.156 407.212 283.145 374.9C294.436 341.713 302.108 307.414 313.94 274.42C320.459 256.254 326.45 237.974 332.429 219.616C338.396 201.282 345.088 183.221 351.395 165.006C357.237 148.105 363.331 130.949 366.717 113.311C369.8 97.1892 369.974 80.542 367.592 64.0631C362.729 30.478 346.013 0.121062 324.851 -27.3787C301.767 -57.3791 274.755 -84.675 245.415 -109.21C238.129 -115.304 230.687 -121.219 223.104 -126.99C222.371 -127.529 221.499 -126.495 222.226 -125.944Z" fill="url(#paint5_linear_2214_8082)"/>
<path d="M218.093 -122.017C249.516 -98.1772 279.151 -72.0265 305.795 -43.3163C330.548 -16.6411 353.816 12.2583 366.383 45.8646C372.154 61.3 375.733 77.6453 376.57 93.8003C377.522 112.018 373.867 129.45 369.053 146.713C364.094 164.524 357.922 181.966 351.687 199.338C345.42 216.783 339.719 234.504 332.793 251.705C325.889 268.857 317.838 285.524 311.228 302.79C305.145 318.668 300.31 335.047 294.632 351.071C283.282 383.139 270.367 414.786 253.173 444.217C235.628 474.239 213.391 501.776 185.354 523.357C157.972 544.436 126.833 561.996 92.1304 570.405C27.2753 586.131 -41.7439 570.677 -107.529 560.658C-115.653 559.418 -123.79 558.245 -131.93 557.188C-132.831 557.071 -133.009 558.408 -132.089 558.518C-65.1107 567.235 3.39507 585.119 70.4536 575.864C105.219 571.069 137.032 557.726 165.478 539.181C195.206 519.81 220.308 495.724 240.269 467.107C260.145 438.613 274.954 407.062 287.415 374.809C293.623 358.752 299.256 342.474 304.713 326.134C310.428 308.988 316.885 292.326 324.135 275.776C331.955 257.886 338.815 239.796 345.334 221.382C351.686 203.42 358.376 185.576 364.272 167.444C369.762 150.564 375.229 133.164 377.325 115.402C379.185 99.6505 377.893 83.5737 374.339 67.8516C366.663 33.7691 348.023 3.70962 325.07 -23.6232C300.286 -53.126 272.217 -80.1102 242.202 -104.779C234.594 -111.029 226.84 -117.123 218.982 -123.088C218.225 -123.607 217.366 -122.568 218.093 -122.017Z" fill="url(#paint6_linear_2214_8082)"/>
<path d="M213.948 -118.096C246.023 -93.8546 276.63 -67.7166 304.792 -39.3359C330.958 -12.9633 356.056 15.2474 371.27 48.6528C378.061 63.5413 383.069 79.4018 385.291 95.3156C387.756 112.998 385.638 130.094 381.691 147.122C377.49 165.308 371.56 183.017 365.195 200.507C358.873 217.898 352.703 235.516 345.119 252.401C337.415 269.526 328.103 285.861 320.09 302.836C312.947 317.96 307.282 333.772 300.965 349.256C287.903 381.277 273.698 413.017 255.13 442.344C236.396 471.906 213.133 498.324 184.279 519.199C155.957 539.679 124.247 556.508 89.0447 564.451C23.0666 579.353 -46.7809 564.617 -113.567 554.35C-121.832 553.078 -130.106 551.86 -138.39 550.739C-139.292 550.623 -139.464 551.948 -138.549 552.07C-70.4168 561.29 -0.775294 578.503 67.4777 569.624C102.497 565.071 134.792 552.447 163.949 534.49C194.705 515.553 221.143 492.021 242.311 463.536C262.953 435.755 278.673 404.835 292.41 373.27C299.29 357.463 305.697 341.45 312.052 325.414C318.777 308.46 326.848 292.283 335.169 276.069C344.085 258.672 351.535 240.912 358.452 222.657C365.136 205.044 371.752 187.372 377.192 169.319C382.233 152.608 386.903 135.21 387.752 117.588C388.516 101.665 385.763 85.68 380.918 70.1967C370.324 36.3281 349.711 6.99739 325.307 -19.7291C298.781 -48.7815 269.543 -75.5904 238.722 -100.451C230.859 -106.797 222.874 -113.006 214.796 -119.111C214.092 -119.68 213.22 -118.646 213.948 -118.096Z" fill="url(#paint7_linear_2214_8082)"/>
<path d="M209.82 -114.181C242.199 -89.7779 273.461 -63.9231 302.859 -36.2281C330.806 -9.89494 358.214 17.9236 376.298 51.3706C384.273 66.1198 390.726 81.9253 394.16 98.0322C397.838 115.296 396.936 132.252 393.753 149.176C390.338 167.311 384.801 184.943 378.495 202.226C372.139 219.661 365.513 237.284 357.297 253.937C349.134 270.468 339.112 285.998 330.011 302.031C321.391 317.211 314.431 333.202 307.023 348.968C292.327 380.261 276.895 411.379 257.232 439.995C236.968 469.487 212.206 494.975 182.113 515.469C152.673 535.505 119.942 551.598 83.9181 558.847C17.3133 572.25 -52.5059 558.416 -119.696 548.003C-128.058 546.702 -136.442 545.451 -144.826 544.272C-145.736 544.138 -145.9 545.481 -144.985 545.603C-76.3901 555.229 -6.43478 571.543 62.3749 563.607C97.6985 559.537 130.542 547.911 160.494 530.708C192.509 512.321 220.704 489.307 243.419 461.031C265.416 433.651 282.458 402.885 297.81 371.557C305.36 356.145 312.53 340.566 319.792 325.028C327.713 308.086 337.532 292.234 346.926 276.066C356.621 259.387 364.447 242.126 371.609 224.241C378.538 206.924 385.039 189.407 390.021 171.401C394.544 155.091 398.334 137.994 398.175 120.822C398.022 104.601 394.036 88.5451 387.954 73.1782C374.638 39.5366 352.005 10.8268 326.139 -15.3717C297.743 -44.1462 267.152 -70.9326 235.326 -96.1733C227.208 -102.616 218.993 -108.94 210.714 -115.191C209.947 -115.759 209.093 -114.732 209.82 -114.181Z" fill="url(#paint8_linear_2214_8082)"/>
<path d="M205.687 -110.254C238.936 -85.2673 271.357 -59.2424 302.374 -31.7158C331.298 -6.04969 360.093 20.5948 380.739 52.9286C390.078 67.5582 398.035 83.3495 402.827 99.7426C407.863 116.971 408.198 134.205 405.67 151.488C403.029 169.567 397.892 187.14 391.696 204.208C385.444 221.44 378.496 238.763 369.922 254.983C360.925 271.995 349.595 287.626 339.062 303.72C329.781 317.911 321.926 332.841 313.898 347.738C297.396 378.375 280.581 408.977 259.674 437.008C249.073 451.22 237.447 464.738 224.521 477.048C211.183 489.732 196.396 500.763 180.799 510.858C150.293 530.618 116.608 546.105 79.7667 552.939C12.1865 565.465 -58.3099 552.181 -126.341 541.547C-134.658 540.251 -142.968 538.974 -151.278 537.769C-152.188 537.635 -152.352 538.978 -151.437 539.1C-82.0609 549.154 -11.3357 564.813 58.3201 557.406C94.284 553.586 127.923 542.497 158.795 525.622C191.242 507.89 220.502 485.69 244.382 458.287C267.817 431.403 286.312 400.921 303.439 369.96C311.71 355.007 319.643 339.864 327.861 324.888C337.092 308.094 348.515 292.607 358.875 276.481C369.115 260.521 377.284 243.76 384.583 226.313C391.635 209.43 397.969 192.189 402.494 174.407C406.717 157.82 409.817 140.335 408.546 122.956C407.36 106.779 402.241 90.9577 395.125 76.0291C379.192 42.5876 354.28 14.4873 326.871 -11.2176C296.634 -39.5999 264.725 -66.3344 231.896 -91.925C223.519 -98.4515 215.078 -104.904 206.578 -111.294C205.814 -111.832 204.947 -110.81 205.687 -110.254Z" fill="url(#paint9_linear_2214_8082)"/>
<path d="M201.541 -106.332C235.66 -80.7623 269.261 -54.5435 301.899 -27.228C332.314 -1.75743 363.091 24.2066 386.266 56.1124C396.328 69.9785 405.193 84.9412 411.102 100.742C417.46 117.731 419.249 135.031 417.572 152.583C415.807 171.015 411.01 188.955 404.807 206.253C398.704 223.288 391.493 240.248 382.671 256.069C373.424 272.651 361.678 287.662 350.296 302.876C339.96 316.694 330.74 331.101 321.698 345.746C303.084 375.928 284.54 406.272 262.052 433.919C250.546 448.058 238.058 461.477 224.242 473.573C210.468 485.644 195.332 496.187 179.635 505.903C148.53 525.14 114.5 540.024 77.4384 546.646C8.79738 558.884 -62.671 546.182 -131.742 535.283C-140.406 533.924 -149.071 532.565 -157.749 531.273C-158.658 531.138 -158.817 532.469 -157.907 532.603C-87.3348 543.136 -15.386 558.351 55.495 551.071C91.4132 547.391 125.204 536.922 156.439 520.716C190.084 503.244 221.011 481.159 246.489 453.957C271.199 427.586 291.186 397.551 310.148 367.142C319.357 352.365 328.136 337.285 337.804 322.781C348.228 307.15 360.274 292.634 371 277.207C381.914 261.527 390.528 244.785 398.038 227.284C405.186 210.646 411.298 193.484 415.263 175.734C418.997 159.051 421.156 141.432 418.659 124.145C416.333 108.04 410.115 92.5554 401.99 78.0765C383.539 45.1839 356.516 18.058 327.756 -6.98254C295.43 -35.1236 261.939 -62.0236 227.846 -88.1512C219.41 -94.6157 210.935 -101.025 202.417 -107.408C201.668 -107.91 200.814 -106.883 201.541 -106.332Z" fill="url(#paint10_linear_2214_8082)"/>
<path d="M197.409 -102.405C232.41 -76.246 267.204 -49.8275 301.462 -22.7533C333.43 2.52019 366.327 27.7759 391.983 59.2186C403.093 72.8278 413.055 87.5686 419.981 103.435C427.226 120.038 430.155 137.266 429.245 154.846C428.298 172.979 424.053 190.693 418.146 207.668C412.246 224.631 404.81 241.319 395.791 256.878C386.04 273.722 373.472 288.754 360.976 303.729C349.318 317.714 338.46 332.121 327.996 346.948C307.671 375.757 287.588 404.832 263.964 431.254C251.568 445.106 238.237 458.202 223.674 469.972C209.23 481.648 193.519 491.97 177.387 501.467C145.741 520.118 111.392 534.265 74.1646 540.552C4.30572 552.361 -68.2357 540.007 -138.46 528.854C-147.029 527.492 -155.617 526.137 -164.19 524.818C-165.099 524.684 -165.271 526.008 -164.349 526.148C-92.8689 537.106 -20.0039 551.832 51.814 544.872C88.4259 541.32 123.069 531.223 155.171 515.177C188.793 498.365 220.246 477.151 246.736 451.353C273.067 425.703 294.893 396.281 315.948 366.552C326.329 351.878 336.331 336.894 347.396 322.693C359.138 307.622 372.07 293.435 383.448 278.088C394.701 262.92 403.618 246.485 411.189 229.273C418.417 212.846 424.332 195.743 427.788 178.049C431.065 161.268 432.335 143.611 428.848 126.446C425.596 110.462 418.523 95.29 409.622 81.2306C388.822 48.392 359.223 21.9799 328.748 -2.67152C294.719 -30.1998 260.032 -56.9359 225.057 -83.3317C216.165 -90.0389 207.249 -96.7273 198.328 -103.403C197.535 -103.983 196.668 -102.961 197.409 -102.405Z" fill="url(#paint11_linear_2214_8082)"/>
<path d="M193.263 -98.4835C228.864 -71.9463 264.573 -45.5512 300.14 -18.9707C333.368 5.84662 368.027 30.0338 396.139 60.3902C420.6 86.8064 439.961 118.04 440.752 153.304C441.578 190.027 427.596 226.268 409.313 257.192C399.381 273.986 386.483 288.845 373.294 303.299C360.907 316.879 348.707 330.497 337.165 344.752C314.475 372.791 292.279 401.308 266.896 427.181C240.231 454.347 209.836 477.072 176.244 496.142C143.612 514.655 108.392 528.437 70.3353 534.479C-0.179833 545.68 -73.1803 533.914 -143.989 522.563C-152.888 521.131 -161.773 519.705 -170.674 518.315C-171.578 518.169 -171.755 519.506 -170.832 519.646C-98.4318 531.034 -24.6221 545.312 48.1543 538.625C85.0702 535.235 120.226 525.609 152.891 509.954C187.664 493.295 220.509 472.003 248.698 446.639C276.692 421.438 300.577 392.52 323.987 363.439C335.442 349.205 346.705 334.799 358.942 321.169C371.794 306.844 385.282 293.03 396.998 277.802C408.335 263.05 417.406 246.872 424.859 229.929C432.093 213.489 437.727 196.206 440.461 178.343C443.076 161.36 443.097 143.669 438.339 126.664C433.896 110.758 425.759 95.8802 415.898 82.2329C392.417 49.7414 360.207 24.45 328 0.224326C292.372 -26.5726 256.518 -53.1033 220.729 -79.7084C211.852 -86.307 202.988 -92.8999 194.13 -99.505C193.395 -100.074 192.535 -99.0342 193.263 -98.4835Z" fill="url(#paint12_linear_2214_8082)"/>
<path d="M189.135 -94.5687C225.053 -67.8639 261.38 -41.6662 297.945 -15.8017C332.411 8.57817 368.706 31.6274 399.249 60.6679C425.778 85.8867 448.542 117.016 451.833 152.845C455.176 189.237 442.135 225.145 424.1 255.682C404.306 289.213 373.363 314.629 346.939 343.066C321.552 370.381 296.789 398.304 269.213 423.658C240.599 449.959 208.636 472.452 174.027 491.311C141.102 509.244 105.76 522.375 67.7567 528.222C-4.15448 539.296 -78.5272 527.776 -150.697 516.109C-159.506 514.687 -168.322 513.247 -177.131 511.825C-178.035 511.678 -178.212 513.015 -177.29 513.155C-103.932 524.961 -29.1724 538.851 44.576 532.369C81.812 529.104 117.47 519.901 150.677 504.614C186.33 488.193 220.127 466.937 249.924 442.362C279.601 417.881 305.719 389.894 331.564 361.816C344.559 347.7 357.551 333.626 371.167 320.057C385.24 306.046 399.496 292.116 411.636 276.489C433.576 248.239 449.545 213.098 453.085 177.245C454.739 160.426 453.352 143.244 447.555 126.864C441.849 110.743 432.446 95.8665 421.403 82.3889C395.41 50.6823 360.993 26.8341 327.338 3.24505C290.456 -22.6114 253.769 -48.7332 217.448 -75.3368C208.269 -82.067 199.115 -88.8159 189.995 -95.6081C189.262 -96.1465 188.389 -95.1128 189.135 -94.5687Z" fill="url(#paint13_linear_2214_8082)"/>
<path d="M184.989 -90.6471C221.246 -63.7512 258.189 -37.751 295.714 -12.547C331.426 11.4438 369.326 33.3557 402.14 61.127C430.751 85.3295 456.558 116.138 462.531 152.584C468.438 188.68 456.516 224.959 438.448 255.248C418.25 289.099 387.006 314.092 358.318 340.959C329.77 367.682 301.802 395.008 271.498 419.96C240.826 445.217 207.469 467.612 171.847 486.322C138.394 503.893 102.608 516.466 64.3039 522.108C-8.35969 532.796 -83.393 521.717 -156.301 509.845C-165.398 508.369 -174.493 506.852 -183.586 505.364C-184.49 505.218 -184.662 506.542 -183.744 506.694C-109.718 518.865 -34.2825 532.35 40.2027 526.219C78.0586 523.107 114.532 514.29 148.514 499.195C185.05 482.969 219.512 461.654 250.95 437.97C283.109 413.74 312.341 386.309 341.399 358.845C355.642 345.375 370.073 332.119 384.557 318.885C399.189 305.526 413.568 291.78 425.754 276.261C447.795 248.172 463.695 213.117 465.309 176.993C466.069 159.828 463.221 142.592 456.153 126.372C449.199 110.391 438.763 95.8081 426.772 82.7483C398.38 51.8176 361.789 29.412 326.654 6.38764C288.166 -18.8282 250.234 -44.8515 212.994 -71.7829C203.917 -78.3521 194.88 -84.9769 185.877 -91.6449C185.129 -92.2193 184.256 -91.1856 184.989 -90.6471Z" fill="url(#paint14_linear_2214_8082)"/>
<path d="M180.857 -86.72C217.464 -59.6271 255.035 -33.7762 293.477 -9.20728C312.274 2.81246 331.336 14.4076 350.431 25.9595C369.42 37.4353 388.343 49.1309 405.945 62.568C435.702 85.2877 463.074 114.621 472.319 150.366C481.719 186.615 471.166 224.191 452.843 254.923C432.179 289.591 400.032 315.225 368.795 340.776C337.434 366.432 306.253 392.284 273.435 416.27C240.688 440.2 206.245 462.617 169.701 481.187C135.583 498.526 99.1641 510.619 60.3537 516.026C-13.3174 526.303 -89.2338 515.495 -163.074 503.362C-172.064 501.89 -181.051 500.375 -190.024 498.867C-190.928 498.72 -191.1 500.045 -190.183 500.197C-115.065 512.8 -38.5072 526.002 37.0904 519.933C74.701 516.919 111.229 508.621 145.254 494.142C183.091 478.047 218.33 456.312 251.746 433.389C286.222 409.718 318.738 383.632 350.922 357.27C382.175 331.682 415.778 307.076 440.577 275.349C462.547 247.244 477.958 212.165 477.216 175.786C476.498 140.714 458.225 109.167 432.572 83.7325C401.48 52.9073 361.984 31.6841 324.733 8.7865C285.512 -15.3204 247.136 -40.7207 209.719 -67.4235C200.34 -74.1243 191.012 -80.9052 181.748 -87.7603C180.983 -88.2979 180.116 -87.2765 180.857 -86.72Z" fill="url(#paint15_linear_2214_8082)"/>
<path d="M176.724 -82.7929C213.421 -55.6902 251.333 -30.1568 290.366 -6.33578C309.624 5.41782 329.179 16.7035 348.912 27.688C368.447 38.5563 388.065 49.3741 406.555 61.8862C438.521 83.5138 468.25 111.703 481.206 147.564C494.147 183.39 486.213 221.584 468.259 252.972C448.28 287.895 416.129 314.359 383.594 338.235C349.062 363.573 313.512 387.738 277.379 411.022C242.202 433.687 206.635 456.532 168.835 475.298C134.316 492.448 97.5333 504.265 58.4888 509.672C-16.385 520.022 -93.5294 509.524 -168.588 497.107C-177.893 495.571 -187.195 493.992 -196.505 492.395C-197.404 492.236 -197.581 493.573 -196.664 493.725C-120.552 506.732 -42.9583 519.672 33.6595 513.698C72.038 510.712 109.48 502.536 144.326 488.037C182.969 471.957 218.379 449.831 253.382 427.92C290.837 404.47 327.549 379.966 363.466 354.46C397.059 330.593 431.267 306.032 456.223 273.514C477.748 245.462 491.973 210.348 488.597 174.175C485.267 138.576 463.451 107.029 435.98 82.7551C402.88 53.4892 362.055 34.0625 323.88 12.0303C283.098 -11.5038 243.42 -36.889 205.021 -63.9906C195.796 -70.5076 186.646 -77.1234 177.565 -83.8258C176.85 -84.3708 175.983 -83.3493 176.724 -82.7929Z" fill="url(#paint16_linear_2214_8082)"/>
</g>
<defs>
<linearGradient id="paint0_linear_2214_8082" x1="299.399" y1="323.236" x2="69.6151" y2="223.002" gradientUnits="userSpaceOnUse">
<stop stop-color="#4EA4F9"/>
<stop offset="1" stop-color="#36D9FF"/>
</linearGradient>
<linearGradient id="paint1_linear_2214_8082" x1="300.059" y1="324.553" x2="61.442" y2="220.466" gradientUnits="userSpaceOnUse">
<stop stop-color="#4EA4F9"/>
<stop offset="1" stop-color="#36D9FF"/>
</linearGradient>
<linearGradient id="paint2_linear_2214_8082" x1="300.813" y1="325.911" x2="53.2687" y2="217.93" gradientUnits="userSpaceOnUse">
<stop stop-color="#4EA4F9"/>
<stop offset="1" stop-color="#36D9FF"/>
</linearGradient>
<linearGradient id="paint3_linear_2214_8082" x1="301.714" y1="327.333" x2="45.0952" y2="215.394" gradientUnits="userSpaceOnUse">
<stop stop-color="#4EA4F9"/>
<stop offset="1" stop-color="#36D9FF"/>
</linearGradient>
<linearGradient id="paint4_linear_2214_8082" x1="302.831" y1="328.85" x2="36.9213" y2="212.858" gradientUnits="userSpaceOnUse">
<stop stop-color="#4EA4F9"/>
<stop offset="1" stop-color="#36D9FF"/>
</linearGradient>
<linearGradient id="paint5_linear_2214_8082" x1="304.264" y1="330.505" x2="28.7476" y2="210.322" gradientUnits="userSpaceOnUse">
<stop stop-color="#4EA4F9"/>
<stop offset="1" stop-color="#36D9FF"/>
</linearGradient>
<linearGradient id="paint6_linear_2214_8082" x1="306.175" y1="332.368" x2="20.5734" y2="207.786" gradientUnits="userSpaceOnUse">
<stop stop-color="#4EA4F9"/>
<stop offset="1" stop-color="#36D9FF"/>
</linearGradient>
<linearGradient id="paint7_linear_2214_8082" x1="310.27" y1="335.183" x2="12.4562" y2="205.275" gradientUnits="userSpaceOnUse">
<stop stop-color="#4EA4F9"/>
<stop offset="1" stop-color="#36D9FF"/>
</linearGradient>
<linearGradient id="paint8_linear_2214_8082" x1="320.983" y1="340.886" x2="4.3654" y2="202.775" gradientUnits="userSpaceOnUse">
<stop stop-color="#4EA4F9"/>
<stop offset="1" stop-color="#36D9FF"/>
</linearGradient>
<linearGradient id="paint9_linear_2214_8082" x1="332.07" y1="346.752" x2="-3.63719" y2="200.314" gradientUnits="userSpaceOnUse">
<stop stop-color="#4EA4F9"/>
<stop offset="1" stop-color="#36D9FF"/>
</linearGradient>
<linearGradient id="paint10_linear_2214_8082" x1="343.335" y1="352.696" x2="-11.7961" y2="197.784" gradientUnits="userSpaceOnUse">
<stop stop-color="#4EA4F9"/>
<stop offset="1" stop-color="#36D9FF"/>
</linearGradient>
<linearGradient id="paint11_linear_2214_8082" x1="354.684" y1="358.675" x2="-19.9705" y2="195.248" gradientUnits="userSpaceOnUse">
<stop stop-color="#4EA4F9"/>
<stop offset="1" stop-color="#36D9FF"/>
</linearGradient>
<linearGradient id="paint12_linear_2214_8082" x1="366.066" y1="364.67" x2="-28.1453" y2="192.712" gradientUnits="userSpaceOnUse">
<stop stop-color="#4EA4F9"/>
<stop offset="1" stop-color="#36D9FF"/>
</linearGradient>
<linearGradient id="paint13_linear_2214_8082" x1="377.133" y1="370.527" x2="-36.6481" y2="190.033" gradientUnits="userSpaceOnUse">
<stop stop-color="#4EA4F9"/>
<stop offset="1" stop-color="#36D9FF"/>
</linearGradient>
<linearGradient id="paint14_linear_2214_8082" x1="388.533" y1="376.53" x2="-44.8229" y2="187.496" gradientUnits="userSpaceOnUse">
<stop stop-color="#4EA4F9"/>
<stop offset="1" stop-color="#36D9FF"/>
</linearGradient>
<linearGradient id="paint15_linear_2214_8082" x1="400.353" y1="382.715" x2="-52.5796" y2="185.143" gradientUnits="userSpaceOnUse">
<stop stop-color="#4EA4F9"/>
<stop offset="1" stop-color="#36D9FF"/>
</linearGradient>
<linearGradient id="paint16_linear_2214_8082" x1="411.669" y1="388.681" x2="-60.8405" y2="182.569" gradientUnits="userSpaceOnUse">
<stop stop-color="#4EA4F9"/>
<stop offset="1" stop-color="#36D9FF"/>
</linearGradient>
</defs>
</svg>
