<svg width="369" height="757" viewBox="0 0 369 757" fill="none" xmlns="http://www.w3.org/2000/svg">
<g style="mix-blend-mode:color-dodge" opacity="0.2">
<path d="M-305.385 604.446C-241.652 610.187 -173.955 637.297 -111.737 616.702C-78.9886 605.866 -51.7379 583.155 -29.4167 558.789C-6.31636 533.568 11.8832 504.371 25.3971 473.248C38.9965 441.928 47.9263 408.644 52.7986 374.714C55.2899 357.371 56.7222 339.844 57.1238 322.246C57.5331 304.666 56.6192 287.078 56.008 269.476C55.3389 250.288 55.2882 231.079 58.3867 212.237C61.5153 193.219 67.4336 174.82 75.0223 157.208C82.5096 139.829 91.6907 123.291 101.488 107.094C111.224 91.0021 121.287 74.732 126.095 56.3736C134.466 24.4063 125.349 -10.13 111.304 -40.4885C97.1367 -71.1044 76.6443 -99.2452 51.4494 -122.832C45.1748 -128.704 38.5957 -134.271 31.7727 -139.566C31.0504 -140.129 30.178 -139.095 30.9057 -138.544C58.865 -116.857 82.4152 -90.0357 99.6695 -59.9832C116.666 -30.3784 129.7 3.83973 127.664 37.2439C125.36 75.0215 99.332 104.915 82.8239 137.284C66.3823 169.536 55.4298 203.949 54.3406 240.624C53.8225 258.346 54.9481 276.128 55.5268 293.877C56.0978 311.607 55.8351 329.28 54.447 346.885C51.7485 381.093 45.1012 414.906 33.987 447.149C22.9213 479.21 7.38028 509.755 -13.1315 536.952C-33.2663 563.642 -58.4136 588.51 -88.543 605.008C-117.629 620.941 -150.626 624.758 -184.492 621.693C-216.943 618.749 -248.859 610.892 -281.116 606.036C-289.143 604.824 -297.183 603.824 -305.247 603.092C-306.112 603.035 -306.297 604.354 -305.385 604.446Z" fill="url(#paint0_linear_2214_10919)"/>
<path d="M26.7783 -134.629C54.8639 -112.945 79.1286 -86.7599 97.8999 -57.3579C116.309 -28.522 131.215 4.58835 131.891 38.1109C132.646 75.6045 111.051 107.038 95.7265 139.413C80.0418 172.578 68.7954 206.878 65.3031 243.729C61.9299 279.305 63.1971 315.302 58.8407 350.77C54.6654 384.713 46.9577 418.166 34.8151 449.975C22.8066 481.405 6.41016 511.228 -15.0707 537.389C-36.6258 563.649 -63.6225 587.71 -95.5069 602.291C-155.687 629.811 -223.882 609.176 -287.693 599.639C-295.666 598.45 -303.652 597.431 -311.657 596.636C-312.556 596.55 -312.733 597.887 -311.816 597.967C-247.863 604.241 -180.857 628.965 -117.821 611.861C-84.5351 602.834 -56.1851 582.148 -32.7112 558.898C-8.49843 534.919 10.7003 506.582 25.2042 476.123C39.9563 445.132 49.9349 411.985 56.1299 378.135C59.24 361.092 61.3913 343.849 62.6541 326.496C64.0034 308.014 64.1037 289.424 64.9245 270.901C65.7618 251.875 67.1756 232.78 70.9536 214.205C74.7783 195.345 80.9613 177.091 88.3743 159.417C95.6085 142.117 104.214 125.502 112.744 108.811C120.972 92.7031 128.71 76.0746 131.845 58.0799C137.485 25.7525 126.628 -7.76434 111.143 -37.2928C95.2456 -67.6282 73.5166 -95.3315 47.7057 -118.867C41.2733 -124.734 34.5785 -130.323 27.6769 -135.652C26.9099 -136.219 26.0559 -135.192 26.7783 -134.629Z" fill="url(#paint1_linear_2214_10919)"/>
<path d="M22.6454 -130.702C51.1896 -108.745 76.4239 -82.7783 96.7044 -53.6511C116.464 -25.2615 133.177 7.0335 136.082 40.814C139.285 78.0632 121.738 110.81 107.584 143.579C100.252 160.53 93.3821 177.712 87.866 195.368C82.4495 212.688 78.8561 230.41 76.0369 248.397C70.5584 283.288 69.0271 318.793 63.2334 353.619C57.5931 387.521 48.7731 420.911 35.4612 452.502C22.3738 483.578 4.84704 512.879 -17.9429 538.104C-40.5818 563.162 -68.7457 585.534 -101.239 598.289C-162.305 622.258 -230.569 602.746 -294.282 593.237C-302.211 592.052 -310.154 591.008 -318.112 590.176C-319.024 590.084 -319.196 591.409 -318.271 591.506C-254.052 598.246 -187.402 620.992 -123.687 606.591C-89.7968 598.935 -60.3592 580.05 -35.6262 557.743C-10.4512 535.03 9.69094 507.643 25.1212 477.924C40.8419 447.647 51.7638 415.057 59.2155 381.726C63.0363 364.629 65.9482 347.324 68.0849 329.9C70.2886 311.893 71.5383 293.746 73.6973 275.734C75.9758 256.768 78.6283 237.732 82.8562 219.164C87.1763 200.17 93.5366 181.76 100.731 163.728C107.709 146.229 115.804 129.246 123.135 111.901C130.077 95.5228 135.784 78.4313 137.44 60.535C140.454 27.8931 128.057 -4.63333 111.218 -33.4549C93.666 -63.5058 70.8216 -90.8354 44.4322 -114.404C37.6826 -120.44 30.7022 -126.196 23.5125 -131.724C22.7771 -132.292 21.91 -131.271 22.6454 -130.702Z" fill="url(#paint2_linear_2214_10919)"/>
<path d="M18.5049 -126.793C47.717 -104.398 74.0326 -78.4415 95.8894 -49.3848C116.813 -21.5519 135.127 9.72103 140.373 43.5023C143.022 60.5497 141.747 77.752 138.03 94.2535C133.945 112.388 126.643 129.483 119.857 146.687C113.081 163.867 106.366 181.087 100.635 198.663C94.9841 215.983 90.8883 233.676 86.9286 251.485C82.9388 269.472 79.1957 287.537 76.3275 305.779C73.7012 322.464 71.1934 339.129 67.7238 355.636C60.7112 388.998 50.9479 421.831 36.7879 452.789C22.7319 483.545 4.1952 512.405 -19.765 536.77C-43.8762 561.303 -73.7723 582.67 -107.542 593.95C-169.381 614.608 -237.342 596.263 -301.042 586.76C-308.881 585.585 -316.73 584.538 -324.603 583.655C-325.51 583.551 -325.687 584.888 -324.762 584.986C-259.892 592.273 -192.903 613.562 -128.339 600.829C-94.3658 594.128 -64.5275 577.08 -38.7583 556.012C-12.2698 534.368 9.04689 507.581 25.5404 478.18C42.2497 448.392 54.077 416.124 62.7314 383.114C71.7045 348.873 75.7063 313.716 82.5726 279.008C86.305 260.18 90.2428 241.311 95.0283 222.753C99.892 203.909 106.391 185.574 113.305 167.434C126.053 134.023 142.51 101.019 143.165 64.301C143.744 31.5882 130.316 0.172146 112.365 -27.9972C93.0239 -58.3476 68.6683 -85.899 41.1903 -109.943C34.1182 -116.133 26.826 -122.07 19.3613 -127.79C18.6443 -128.365 17.7773 -127.344 18.5049 -126.793Z" fill="url(#paint3_linear_2214_10919)"/>
<path d="M14.3721 -122.866C44.1894 -100.105 71.4998 -74.2101 94.8761 -45.38C117.206 -17.8374 137.329 12.7959 144.91 46.8082C148.499 62.9534 148.969 79.5902 146.986 95.6962C144.766 113.74 138.852 130.77 132.832 147.755C126.65 165.149 120.089 182.407 114.122 199.881C108.104 217.507 103.351 235.453 98.249 253.376C93.3057 270.757 88.0917 288.078 84.0096 305.704C80.2553 321.897 77.1578 338.231 73.1068 354.354C64.7482 387.581 54.0648 420.303 38.9906 451.067C23.9616 481.763 4.38983 510.419 -20.8182 534.138C-46.0025 557.838 -76.8143 578.048 -111.038 588.401C-173.995 607.435 -242.454 590.125 -306.942 580.424C-314.955 579.218 -322.998 578.115 -331.042 577.158C-331.949 577.054 -332.121 578.379 -331.201 578.488C-265.448 586.292 -197.796 606.383 -132.208 594.811C-97.555 588.699 -66.7733 572.601 -39.8607 552.061C-12.4297 531.12 9.85308 505.017 27.237 475.829C44.927 446.119 57.6127 413.745 67.3989 380.645C77.3896 346.862 83.1416 311.988 92.6543 278.084C97.8794 259.485 102.853 240.746 108.396 222.242C113.86 204.024 120.391 186.155 126.897 168.304C133.069 151.401 139.74 134.496 144.305 117.053C148.567 100.804 150.316 83.9103 149.185 66.927C146.953 33.5714 131.56 2.581 111.816 -25.3063C90.7345 -55.1035 65.284 -82.1848 37.1955 -106.189C30.0412 -112.298 22.7144 -118.192 15.2182 -123.911C14.5037 -124.456 13.6444 -123.417 14.3721 -122.866Z" fill="url(#paint4_linear_2214_10919)"/>
<path d="M10.2263 -118.944C40.9341 -95.5768 69.4822 -69.477 94.5547 -40.5631C117.787 -13.7642 139.194 15.6067 149.315 49.0211C154.258 65.3195 156.39 82.477 155.726 99.1731C155 117.3 150.15 134.503 144.719 151.569C139.047 169.404 132.568 186.976 126.394 204.636C120.25 222.193 115.048 240.059 108.944 257.633C102.981 274.773 96.3677 291.688 91.1349 309.089C86.311 325.122 82.3561 341.417 77.506 357.439C67.7061 389.818 55.9706 421.732 39.9871 451.575C23.5746 482.221 2.46055 510.584 -24.5405 533.331C-50.7876 555.459 -81.7621 574.038 -116.059 583.164C-179.765 600.121 -248.135 583.929 -312.988 574.098C-321.143 572.859 -329.309 571.717 -337.491 570.685C-338.393 570.569 -338.57 571.906 -337.65 572.015C-271.361 580.272 -203.401 599.156 -137.136 588.929C-102.822 583.631 -71.7891 569.32 -44.2858 550.145C-14.9905 529.725 9.17995 504.198 28.1212 474.625C46.5841 445.792 60.1563 414.212 71.1447 381.9C82.4363 348.713 90.1075 314.414 101.94 281.42C108.459 263.254 114.45 244.974 120.429 226.616C126.396 208.282 133.088 190.221 139.395 172.006C145.237 155.105 151.331 137.949 154.717 120.311C157.8 104.189 157.974 87.542 155.592 71.0631C150.729 37.478 134.013 7.12106 112.851 -20.3787C89.7665 -50.3791 62.7549 -77.675 33.415 -102.21C26.1291 -108.304 18.6867 -114.219 11.1041 -119.99C10.371 -120.529 9.49866 -119.495 10.2263 -118.944Z" fill="url(#paint5_linear_2214_10919)"/>
<path d="M6.09344 -115.017C37.5162 -91.1772 67.1505 -65.0265 93.795 -36.3163C118.548 -9.64113 141.816 19.2583 154.383 52.8646C160.154 68.3 163.733 84.6453 164.57 100.8C165.522 119.018 161.867 136.45 157.053 153.713C152.094 171.524 145.922 188.966 139.687 206.338C133.42 223.783 127.719 241.504 120.793 258.705C113.889 275.857 105.838 292.524 99.2275 309.79C93.1445 325.668 88.3104 342.047 82.6316 358.071C71.2817 390.139 58.3668 421.786 41.1732 451.217C23.6285 481.239 1.39135 508.776 -26.6463 530.357C-54.0281 551.436 -85.1668 568.996 -119.87 577.405C-184.725 593.131 -253.744 577.677 -319.529 567.658C-327.653 566.418 -335.79 565.245 -343.93 564.188C-344.831 564.071 -345.009 565.408 -344.089 565.518C-277.111 574.235 -208.605 592.119 -141.546 582.864C-106.781 578.069 -74.968 564.726 -46.5218 546.181C-16.7942 526.81 8.30846 502.724 28.2693 474.107C48.1452 445.613 62.9537 414.062 75.4149 381.809C81.6228 365.752 87.2559 349.474 92.7132 333.134C98.4285 315.988 104.885 299.326 112.135 282.776C119.955 264.886 126.815 246.796 133.334 228.382C139.686 210.42 146.376 192.576 152.272 174.444C157.762 157.564 163.229 140.164 165.325 122.402C167.185 106.65 165.893 90.5737 162.339 74.8516C154.663 40.7691 136.023 10.7096 113.07 -16.6232C88.2859 -46.126 60.2172 -73.1102 30.2022 -97.7794C22.5937 -104.029 14.8395 -110.123 6.98191 -116.088C6.22508 -116.607 5.36577 -115.568 6.09344 -115.017Z" fill="url(#paint6_linear_2214_10919)"/>
<path d="M1.9475 -111.096C34.0227 -86.8546 64.6304 -60.7166 92.7923 -32.3359C118.958 -5.9633 144.056 22.2474 159.27 55.6528C166.061 70.5413 171.069 86.4018 173.291 102.316C175.756 119.998 173.638 137.094 169.691 154.122C165.49 172.308 159.56 190.017 153.195 207.507C146.873 224.898 140.703 242.516 133.119 259.401C125.415 276.526 116.103 292.861 108.09 309.836C100.947 324.96 95.2824 340.772 88.9653 356.256C75.9031 388.277 61.6984 420.017 43.1297 449.344C24.3964 478.906 1.13279 505.324 -27.7209 526.199C-56.0432 546.679 -87.7532 563.508 -122.955 571.451C-188.933 586.353 -258.781 571.617 -325.567 561.35C-333.832 560.078 -342.106 558.86 -350.39 557.739C-351.292 557.623 -351.464 558.948 -350.549 559.07C-282.417 568.29 -212.775 585.503 -144.522 576.624C-109.503 572.071 -77.2084 559.447 -48.0506 541.49C-17.2947 522.553 9.14334 499.021 30.3109 470.536C50.9528 442.755 66.6725 411.835 80.4104 380.27C87.29 364.463 93.6974 348.45 100.052 332.414C106.777 315.46 114.848 299.283 123.169 283.069C132.085 265.672 139.535 247.912 146.452 229.657C153.136 212.044 159.752 194.372 165.192 176.319C170.233 159.608 174.903 142.21 175.752 124.588C176.516 108.665 173.763 92.68 168.918 77.1967C158.324 43.3281 137.711 13.9974 113.307 -12.7291C86.781 -41.7815 57.5431 -68.5904 26.7217 -93.4511C18.8587 -99.7969 10.8738 -106.006 2.79608 -112.111C2.09224 -112.68 1.21984 -111.646 1.9475 -111.096Z" fill="url(#paint7_linear_2214_10919)"/>
<path d="M-2.1798 -107.181C30.1994 -82.7779 61.4614 -56.9231 90.8592 -29.2281C118.806 -2.89494 146.214 24.9236 164.298 58.3706C172.273 73.1198 178.726 88.9253 182.16 105.032C185.838 122.296 184.936 139.252 181.753 156.176C178.338 174.311 172.801 191.943 166.495 209.226C160.139 226.661 153.513 244.284 145.297 260.937C137.134 277.468 127.112 292.998 118.011 309.031C109.391 324.211 102.431 340.202 95.0232 355.968C80.327 387.261 64.8953 418.379 45.2317 446.995C24.9677 476.487 0.205555 501.975 -29.8873 522.469C-59.3273 542.505 -92.0583 558.598 -128.082 565.847C-194.687 579.25 -264.506 565.416 -331.696 555.003C-340.058 553.702 -348.442 552.451 -356.826 551.272C-357.736 551.138 -357.9 552.481 -356.985 552.603C-288.39 562.229 -218.435 578.543 -149.625 570.607C-114.302 566.537 -81.4582 554.911 -51.5057 537.708C-19.4907 519.321 8.70381 496.307 31.4194 468.031C53.4161 440.651 70.4581 409.885 85.8096 378.557C93.3601 363.145 100.53 347.566 107.792 332.028C115.713 315.086 125.532 299.234 134.926 283.066C144.621 266.387 152.447 249.126 159.609 231.241C166.538 213.924 173.039 196.407 178.021 178.401C182.544 162.091 186.334 144.994 186.175 127.822C186.022 111.601 182.036 95.5451 175.954 80.1782C162.638 46.5366 140.005 17.8268 114.139 -8.37174C85.7426 -37.1462 55.1524 -63.9326 23.3259 -89.1733C15.2084 -95.6157 6.99279 -101.94 -1.28648 -108.191C-2.0535 -108.759 -2.90747 -107.732 -2.1798 -107.181Z" fill="url(#paint8_linear_2214_10919)"/>
<path d="M-6.31265 -103.254C26.9361 -78.2673 59.3571 -52.2424 90.3738 -24.7158C119.298 0.950307 148.093 27.5948 168.739 59.9286C178.078 74.5582 186.035 90.3495 190.827 106.743C195.863 123.971 196.198 141.205 193.67 158.488C191.029 176.567 185.892 194.14 179.696 211.208C173.444 228.44 166.496 245.763 157.922 261.983C148.925 278.995 137.595 294.626 127.062 310.72C117.781 324.911 109.926 339.841 101.898 354.738C85.3958 385.375 68.5811 415.977 47.6745 444.008C37.0725 458.22 25.4465 471.738 12.5212 484.048C-0.817062 496.732 -15.6043 507.763 -31.2009 517.858C-61.7071 537.618 -95.3917 553.105 -132.233 559.939C-199.813 572.465 -270.31 559.181 -338.341 548.547C-346.658 547.251 -354.968 545.974 -363.278 544.769C-364.188 544.635 -364.352 545.978 -363.437 546.1C-294.061 556.154 -223.336 571.813 -153.68 564.406C-117.716 560.586 -84.0766 549.497 -53.2055 532.622C-20.7581 514.89 8.50165 492.69 32.3821 465.287C55.8172 438.403 74.312 407.921 91.4395 376.96C99.7103 362.007 107.643 346.864 115.861 331.888C125.092 315.094 136.515 299.607 146.875 283.481C157.115 267.521 165.284 250.76 172.583 233.313C179.635 216.43 185.969 199.189 190.494 181.407C194.717 164.82 197.817 147.335 196.546 129.956C195.36 113.779 190.241 97.9577 183.125 83.0291C167.192 49.5876 142.28 21.4873 114.871 -4.21765C84.6336 -32.5999 52.725 -59.3344 19.896 -84.925C11.5186 -91.4515 3.07755 -97.9038 -5.42176 -104.294C-6.18635 -104.832 -7.05341 -103.81 -6.31265 -103.254Z" fill="url(#paint9_linear_2214_10919)"/>
<path d="M-10.4586 -99.3321C23.6597 -73.7623 57.2607 -47.5435 89.8993 -20.228C120.314 5.24257 151.091 31.2066 174.266 63.1124C184.328 76.9785 193.193 91.9412 199.102 107.742C205.46 124.731 207.249 142.031 205.572 159.583C203.807 178.015 199.01 195.955 192.807 213.253C186.704 230.288 179.493 247.248 170.671 263.069C161.424 279.651 149.678 294.662 138.296 309.876C127.96 323.694 118.74 338.101 109.698 352.746C91.084 382.928 72.54 413.272 50.0522 440.919C38.5458 455.058 26.0576 468.477 12.2419 480.573C-1.53162 492.644 -16.6681 503.187 -32.3648 512.903C-63.4699 532.14 -97.5004 547.024 -134.562 553.646C-203.203 565.884 -274.671 553.182 -343.742 542.283C-352.406 540.924 -361.071 539.565 -369.749 538.273C-370.658 538.138 -370.817 539.469 -369.907 539.603C-299.335 550.136 -227.386 565.351 -156.505 558.071C-120.587 554.391 -86.7963 543.922 -55.5614 527.716C-21.9162 510.244 9.01069 488.159 34.4893 460.957C59.1994 434.586 79.1856 404.551 98.1482 374.142C107.357 359.365 116.136 344.285 125.804 329.781C136.228 314.15 148.274 299.634 159 284.207C169.914 268.527 178.528 251.785 186.038 234.284C193.186 217.646 199.298 200.484 203.263 182.734C206.997 166.051 209.156 148.432 206.659 131.145C204.333 115.04 198.115 99.5554 189.99 85.0765C171.539 52.1839 144.516 25.058 115.756 0.0174561C83.4304 -28.1236 49.9393 -55.0236 15.8458 -81.1512C7.41009 -87.6157 -1.06544 -94.0246 -9.58322 -100.408C-10.3323 -100.91 -11.1863 -99.8828 -10.4586 -99.3321Z" fill="url(#paint10_linear_2214_10919)"/>
<path d="M-14.5912 -95.4049C20.4097 -69.246 55.2037 -42.8275 89.4618 -15.7533C121.43 9.52019 154.327 34.7759 179.983 66.2186C191.093 79.8278 201.055 94.5686 207.981 110.435C215.226 127.038 218.155 144.266 217.245 161.846C216.298 179.979 212.053 197.693 206.146 214.668C200.246 231.631 192.81 248.319 183.791 263.878C174.04 280.722 161.472 295.754 148.976 310.729C137.318 324.714 126.46 339.121 115.996 353.948C95.6706 382.757 75.5883 411.832 51.9643 438.254C39.5679 452.106 26.2375 465.202 11.6741 476.972C-2.77018 488.648 -18.4814 498.97 -34.6132 508.467C-66.2591 527.118 -100.608 541.265 -137.835 547.552C-207.694 559.361 -280.236 547.007 -350.46 535.854C-359.029 534.492 -367.617 533.137 -376.19 531.818C-377.099 531.684 -377.271 533.008 -376.349 533.148C-304.869 544.106 -232.004 558.832 -160.186 551.872C-123.574 548.32 -88.9311 538.223 -56.8291 522.177C-23.2067 505.365 8.24574 484.151 34.7357 458.353C61.0668 432.703 82.893 403.281 103.948 373.552C114.329 358.878 124.331 343.894 135.396 329.693C147.138 314.622 160.07 300.435 171.448 285.088C182.701 269.92 191.618 253.485 199.189 236.273C206.417 219.846 212.332 202.743 215.788 185.049C219.065 168.268 220.335 150.611 216.848 133.446C213.596 117.462 206.523 102.29 197.622 88.2306C176.822 55.392 147.223 28.9799 116.748 4.32848C82.719 -23.1998 48.0324 -49.9359 13.0568 -76.3317C4.16496 -83.0389 -4.75067 -89.7273 -13.6717 -96.4035C-14.4649 -96.9828 -15.3319 -95.9613 -14.5912 -95.4049Z" fill="url(#paint11_linear_2214_10919)"/>
<path d="M-18.737 -91.4835C16.8638 -64.9463 52.5734 -38.5512 88.1397 -11.9707C121.368 12.8466 156.027 37.0338 184.139 67.3902C208.6 93.8064 227.961 125.04 228.752 160.304C229.578 197.027 215.596 233.268 197.313 264.192C187.381 280.986 174.483 295.845 161.294 310.299C148.907 323.879 136.707 337.497 125.165 351.752C102.475 379.791 80.2787 408.308 54.8958 434.181C28.231 461.347 -2.16352 484.072 -35.7563 503.142C-68.3877 521.655 -103.608 535.437 -141.665 541.479C-212.18 552.68 -285.18 540.914 -355.989 529.563C-364.888 528.131 -373.773 526.705 -382.674 525.315C-383.578 525.169 -383.755 526.506 -382.832 526.646C-310.432 538.034 -236.622 552.312 -163.846 545.625C-126.93 542.235 -91.7743 532.609 -59.1093 516.954C-24.3357 500.295 8.50898 479.003 36.6981 453.639C64.6915 428.438 88.5768 399.52 111.987 370.439C123.442 356.205 134.705 341.799 146.942 328.169C159.794 313.844 173.282 300.03 184.998 284.802C196.335 270.05 205.406 253.872 212.859 236.929C220.093 220.489 225.727 203.206 228.461 185.343C231.076 168.36 231.097 150.669 226.339 133.664C221.896 117.758 213.759 102.88 203.898 89.2329C180.417 56.7414 148.207 31.45 116 7.22433C80.3719 -19.5726 44.5185 -46.1033 8.72871 -72.7084C-0.148056 -79.307 -9.01168 -85.8999 -17.87 -92.505C-18.6054 -93.0736 -19.4647 -92.0342 -18.737 -91.4835Z" fill="url(#paint12_linear_2214_10919)"/>
<path d="M-22.8646 -87.5687C13.0534 -60.8639 49.3799 -34.6662 85.9454 -8.80172C120.411 15.5782 156.706 38.6274 187.249 67.6679C213.778 92.8867 236.542 124.016 239.833 159.845C243.176 196.237 230.135 232.145 212.1 262.682C192.306 296.213 161.363 321.629 134.939 350.066C109.552 377.381 84.7893 405.304 57.2132 430.658C28.5995 456.959 -3.36399 479.452 -37.9734 498.311C-70.8983 516.244 -106.24 529.375 -144.243 535.222C-216.154 546.296 -290.527 534.776 -362.697 523.109C-371.506 521.687 -380.322 520.247 -389.131 518.825C-390.035 518.678 -390.212 520.015 -389.29 520.155C-315.932 531.961 -241.172 545.851 -167.424 539.369C-130.188 536.104 -94.5302 526.901 -61.3231 511.614C-25.6697 495.193 8.127 473.937 37.9235 449.362C67.601 424.881 93.7189 396.894 119.564 368.816C132.559 354.7 145.551 340.626 159.167 327.057C173.24 313.046 187.496 299.116 199.636 283.489C221.576 255.239 237.545 220.098 241.085 184.245C242.739 167.426 241.352 150.244 235.555 133.864C229.849 117.743 220.446 102.867 209.403 89.3889C183.41 57.6823 148.993 33.8341 115.338 10.2451C78.4564 -15.6114 41.769 -41.7332 5.44782 -68.3368C-3.7306 -75.067 -12.8852 -81.8159 -22.0053 -88.6081C-22.7384 -89.1465 -23.6107 -88.1128 -22.8646 -87.5687Z" fill="url(#paint13_linear_2214_10919)"/>
<path d="M-27.0105 -83.6471C9.24558 -56.7512 46.1891 -30.751 83.714 -5.54698C119.426 18.4438 157.326 40.3557 190.14 68.127C218.751 92.3295 244.558 123.138 250.531 159.584C256.438 195.68 244.516 231.959 226.448 262.248C206.25 296.099 175.006 321.092 146.318 347.959C117.77 374.682 89.8018 402.008 59.4977 426.96C28.8258 452.217 -4.53128 474.612 -40.1525 493.322C-73.6064 510.893 -109.392 523.466 -147.696 529.108C-220.36 539.796 -295.393 528.717 -368.301 516.845C-377.398 515.369 -386.493 513.852 -395.586 512.364C-396.49 512.218 -396.662 513.542 -395.744 513.694C-321.718 525.865 -246.283 539.35 -171.797 533.219C-133.941 530.107 -97.4681 521.29 -63.4862 506.195C-26.9502 489.969 7.51248 468.654 38.9499 444.97C71.1091 420.74 100.341 393.309 129.399 365.845C143.642 352.375 158.073 339.119 172.557 325.885C187.189 312.526 201.568 298.78 213.754 283.261C235.795 255.172 251.695 220.117 253.309 183.993C254.069 166.828 251.221 149.592 244.153 133.372C237.199 117.391 226.763 102.808 214.772 89.7483C186.38 58.8176 149.789 36.412 114.654 13.3876C76.1662 -11.8282 38.2338 -37.8515 0.994035 -64.7829C-8.08288 -71.3521 -17.12 -77.9769 -26.1225 -84.6449C-26.8711 -85.2193 -27.7435 -84.1856 -27.0105 -83.6471Z" fill="url(#paint14_linear_2214_10919)"/>
<path d="M-31.1432 -79.72C5.46408 -52.6271 43.0346 -26.7762 81.4766 -2.20728C100.274 9.81246 119.336 21.4076 138.431 32.9595C157.42 44.4353 176.343 56.1309 193.945 69.568C223.702 92.2877 251.074 121.621 260.319 157.366C269.719 193.615 259.166 231.191 240.843 261.923C220.179 296.591 188.032 322.225 156.795 347.776C125.434 373.432 94.2528 399.284 61.4349 423.27C28.6884 447.2 -5.7554 469.617 -42.2991 488.187C-76.417 505.526 -112.836 517.619 -151.646 523.026C-225.317 533.303 -301.234 522.495 -375.074 510.362C-384.064 508.89 -393.051 507.375 -402.024 505.867C-402.928 505.72 -403.1 507.045 -402.183 507.197C-327.065 519.8 -250.507 533.002 -174.91 526.933C-137.299 523.919 -100.771 515.621 -66.7461 501.142C-28.9088 485.047 6.33014 463.312 39.746 440.389C74.2218 416.718 106.738 390.632 138.922 364.27C170.175 338.682 203.778 314.076 228.577 282.349C250.547 254.244 265.958 219.165 265.216 182.786C264.498 147.714 246.225 116.167 220.572 90.7325C189.48 59.9073 149.984 38.6841 112.733 15.7865C73.5121 -8.3204 35.1362 -33.7207 -2.28136 -60.4235C-11.6599 -67.1243 -20.9879 -73.9052 -30.2523 -80.7603C-31.0169 -81.2979 -31.884 -80.2765 -31.1432 -79.72Z" fill="url(#paint15_linear_2214_10919)"/>
<path d="M-35.276 -75.7929C1.42068 -48.6902 39.3327 -23.1568 78.3663 0.664223C97.6237 12.4178 117.179 23.7035 136.912 34.688C156.447 45.5563 176.065 56.3741 194.555 68.8862C226.521 90.5138 256.25 118.703 269.206 154.564C282.147 190.39 274.213 228.584 256.259 259.972C236.28 294.895 204.129 321.359 171.594 345.235C137.062 370.573 101.512 394.738 65.3791 418.022C30.2024 440.687 -5.36494 463.532 -43.1648 482.298C-77.6839 499.448 -114.467 511.265 -153.511 516.672C-228.385 527.022 -305.529 516.524 -380.588 504.107C-389.893 502.571 -399.195 500.992 -408.505 499.395C-409.404 499.236 -409.581 500.573 -408.664 500.725C-332.552 513.732 -254.958 526.672 -178.341 520.698C-139.962 517.712 -102.52 509.536 -67.6735 495.037C-29.0313 478.957 6.37862 456.831 41.382 434.92C78.8369 411.47 115.549 386.966 151.466 361.46C185.059 337.593 219.267 313.032 244.223 280.514C265.748 252.462 279.973 217.348 276.597 181.175C273.267 145.576 251.451 114.029 223.98 89.7551C190.88 60.4892 150.055 41.0625 111.88 19.0303C71.0979 -4.50379 31.4197 -29.889 -6.97909 -56.9906C-16.2037 -63.5076 -25.3539 -70.1234 -34.4352 -76.8258C-35.1497 -77.3708 -36.0168 -76.3493 -35.276 -75.7929Z" fill="url(#paint16_linear_2214_10919)"/>
</g>
<defs>
<linearGradient id="paint0_linear_2214_10919" x1="87.3993" y1="330.236" x2="-142.385" y2="230.002" gradientUnits="userSpaceOnUse">
<stop stop-color="#4EA4F9"/>
<stop offset="1" stop-color="#36D9FF"/>
</linearGradient>
<linearGradient id="paint1_linear_2214_10919" x1="88.0587" y1="331.553" x2="-150.558" y2="227.466" gradientUnits="userSpaceOnUse">
<stop stop-color="#4EA4F9"/>
<stop offset="1" stop-color="#36D9FF"/>
</linearGradient>
<linearGradient id="paint2_linear_2214_10919" x1="88.8128" y1="332.911" x2="-158.731" y2="224.93" gradientUnits="userSpaceOnUse">
<stop stop-color="#4EA4F9"/>
<stop offset="1" stop-color="#36D9FF"/>
</linearGradient>
<linearGradient id="paint3_linear_2214_10919" x1="89.7138" y1="334.333" x2="-166.905" y2="222.394" gradientUnits="userSpaceOnUse">
<stop stop-color="#4EA4F9"/>
<stop offset="1" stop-color="#36D9FF"/>
</linearGradient>
<linearGradient id="paint4_linear_2214_10919" x1="90.8306" y1="335.85" x2="-175.079" y2="219.858" gradientUnits="userSpaceOnUse">
<stop stop-color="#4EA4F9"/>
<stop offset="1" stop-color="#36D9FF"/>
</linearGradient>
<linearGradient id="paint5_linear_2214_10919" x1="92.2637" y1="337.505" x2="-183.252" y2="217.322" gradientUnits="userSpaceOnUse">
<stop stop-color="#4EA4F9"/>
<stop offset="1" stop-color="#36D9FF"/>
</linearGradient>
<linearGradient id="paint6_linear_2214_10919" x1="94.1753" y1="339.368" x2="-191.427" y2="214.786" gradientUnits="userSpaceOnUse">
<stop stop-color="#4EA4F9"/>
<stop offset="1" stop-color="#36D9FF"/>
</linearGradient>
<linearGradient id="paint7_linear_2214_10919" x1="98.2698" y1="342.183" x2="-199.544" y2="212.275" gradientUnits="userSpaceOnUse">
<stop stop-color="#4EA4F9"/>
<stop offset="1" stop-color="#36D9FF"/>
</linearGradient>
<linearGradient id="paint8_linear_2214_10919" x1="108.983" y1="347.886" x2="-207.635" y2="209.775" gradientUnits="userSpaceOnUse">
<stop stop-color="#4EA4F9"/>
<stop offset="1" stop-color="#36D9FF"/>
</linearGradient>
<linearGradient id="paint9_linear_2214_10919" x1="120.07" y1="353.752" x2="-215.637" y2="207.314" gradientUnits="userSpaceOnUse">
<stop stop-color="#4EA4F9"/>
<stop offset="1" stop-color="#36D9FF"/>
</linearGradient>
<linearGradient id="paint10_linear_2214_10919" x1="131.335" y1="359.696" x2="-223.796" y2="204.784" gradientUnits="userSpaceOnUse">
<stop stop-color="#4EA4F9"/>
<stop offset="1" stop-color="#36D9FF"/>
</linearGradient>
<linearGradient id="paint11_linear_2214_10919" x1="142.684" y1="365.675" x2="-231.971" y2="202.248" gradientUnits="userSpaceOnUse">
<stop stop-color="#4EA4F9"/>
<stop offset="1" stop-color="#36D9FF"/>
</linearGradient>
<linearGradient id="paint12_linear_2214_10919" x1="154.066" y1="371.67" x2="-240.145" y2="199.712" gradientUnits="userSpaceOnUse">
<stop stop-color="#4EA4F9"/>
<stop offset="1" stop-color="#36D9FF"/>
</linearGradient>
<linearGradient id="paint13_linear_2214_10919" x1="165.133" y1="377.527" x2="-248.648" y2="197.033" gradientUnits="userSpaceOnUse">
<stop stop-color="#4EA4F9"/>
<stop offset="1" stop-color="#36D9FF"/>
</linearGradient>
<linearGradient id="paint14_linear_2214_10919" x1="176.533" y1="383.53" x2="-256.823" y2="194.496" gradientUnits="userSpaceOnUse">
<stop stop-color="#4EA4F9"/>
<stop offset="1" stop-color="#36D9FF"/>
</linearGradient>
<linearGradient id="paint15_linear_2214_10919" x1="188.353" y1="389.715" x2="-264.58" y2="192.143" gradientUnits="userSpaceOnUse">
<stop stop-color="#4EA4F9"/>
<stop offset="1" stop-color="#36D9FF"/>
</linearGradient>
<linearGradient id="paint16_linear_2214_10919" x1="199.669" y1="395.681" x2="-272.841" y2="189.569" gradientUnits="userSpaceOnUse">
<stop stop-color="#4EA4F9"/>
<stop offset="1" stop-color="#36D9FF"/>
</linearGradient>
</defs>
</svg>
