<svg width="300" height="59" viewBox="0 0 300 59" fill="none" xmlns="http://www.w3.org/2000/svg">
<g clip-path="url(#clip0_2389_7276)">
<path d="M63.3746 0.0192299C58.2385 0.157835 51.2488 0.556328 50.6599 0.729586C50.478 0.790226 51.1882 1.81244 59.8668 14.0877C65.0289 21.3992 69.2989 27.3853 69.3508 27.3853C69.3941 27.3853 76.2279 21.4425 84.5167 14.1744C98.8597 1.6132 99.5872 0.963484 99.3534 0.902843C98.903 0.781563 89.8693 0.365744 82.9057 0.140511C80.2727 0.0538807 65.4879 -0.0414104 63.3746 0.0192299Z" fill="#A3A3A3"/>
<path d="M63.3746 0.0192299C58.2385 0.157835 51.2488 0.556328 50.6599 0.729586C50.478 0.790226 51.1882 1.81244 59.8668 14.0877C65.0289 21.3992 69.2989 27.3853 69.3508 27.3853C69.3941 27.3853 76.2279 21.4425 84.5167 14.1744C98.8597 1.6132 99.5872 0.963484 99.3534 0.902843C98.903 0.781563 89.8693 0.365744 82.9057 0.140511C80.2727 0.0538807 65.4879 -0.0414104 63.3746 0.0192299Z" fill="#36D9FF" fill-opacity="0.03"/>
<path d="M123.605 0.980692C123.631 1.06732 124.671 5.28614 125.909 10.3626L128.17 19.5799L126.082 25.4793C124.939 28.7279 124.004 31.4134 124.004 31.4394C124.004 31.474 125.277 31.5 126.845 31.5H129.677L131.66 25.9211C132.752 22.8458 133.704 20.2469 133.782 20.1256C133.86 20.013 137.446 15.6643 141.759 10.4579C146.073 5.25149 149.615 0.954704 149.624 0.911388C149.641 0.868074 148.281 0.833424 146.332 0.833424H143.006L141.014 3.31967C139.923 4.6884 137.983 7.09668 136.71 8.66466C135.428 10.2413 133.99 12.0692 133.505 12.7276L132.63 13.9404L132.396 12.6929C132.111 11.1769 132.059 10.9343 130.759 5.37277C130.188 2.9385 129.72 0.920052 129.72 0.894064C129.72 0.859411 128.334 0.833424 126.637 0.833424C123.744 0.833424 123.562 0.842087 123.605 0.980692Z" fill="#A3A3A3"/>
<path d="M123.605 0.980692C123.631 1.06732 124.671 5.28614 125.909 10.3626L128.17 19.5799L126.082 25.4793C124.939 28.7279 124.004 31.4134 124.004 31.4394C124.004 31.474 125.277 31.5 126.845 31.5H129.677L131.66 25.9211C132.752 22.8458 133.704 20.2469 133.782 20.1256C133.86 20.013 137.446 15.6643 141.759 10.4579C146.073 5.25149 149.615 0.954704 149.624 0.911388C149.641 0.868074 148.281 0.833424 146.332 0.833424H143.006L141.014 3.31967C139.923 4.6884 137.983 7.09668 136.71 8.66466C135.428 10.2413 133.99 12.0692 133.505 12.7276L132.63 13.9404L132.396 12.6929C132.111 11.1769 132.059 10.9343 130.759 5.37277C130.188 2.9385 129.72 0.920052 129.72 0.894064C129.72 0.859411 128.334 0.833424 126.637 0.833424C123.744 0.833424 123.562 0.842087 123.605 0.980692Z" fill="#36D9FF" fill-opacity="0.03"/>
<path d="M147.129 16.0541C141.438 24.4138 136.744 31.3094 136.709 31.3787C136.649 31.4827 137.099 31.5 139.576 31.5H142.521L144.747 28.1215L146.981 24.743H152.421C155.409 24.743 157.877 24.7689 157.895 24.8036C157.912 24.8469 157.877 26.1377 157.817 27.6883C157.756 29.239 157.704 30.729 157.704 30.9976L157.695 31.5H160.372H163.048L163.1 30.4345C163.161 29.265 163.845 2.46204 163.845 1.45715V0.833424H160.666L157.479 0.842087L147.129 16.0541ZM158.345 13.6198C158.224 16.5219 158.128 19.0601 158.128 19.2594V19.6319H154.006C151.736 19.6319 149.9 19.5972 149.918 19.5626C149.935 19.5192 151.875 16.7818 154.231 13.4726L158.518 7.46052L158.544 7.90233C158.562 8.14489 158.466 10.7178 158.345 13.6198Z" fill="#A3A3A3"/>
<path d="M147.129 16.0541C141.438 24.4138 136.744 31.3094 136.709 31.3787C136.649 31.4827 137.099 31.5 139.576 31.5H142.521L144.747 28.1215L146.981 24.743H152.421C155.409 24.743 157.877 24.7689 157.895 24.8036C157.912 24.8469 157.877 26.1377 157.817 27.6883C157.756 29.239 157.704 30.729 157.704 30.9976L157.695 31.5H160.372H163.048L163.1 30.4345C163.161 29.265 163.845 2.46204 163.845 1.45715V0.833424H160.666L157.479 0.842087L147.129 16.0541ZM158.345 13.6198C158.224 16.5219 158.128 19.0601 158.128 19.2594V19.6319H154.006C151.736 19.6319 149.9 19.5972 149.918 19.5626C149.935 19.5192 151.875 16.7818 154.231 13.4726L158.518 7.46052L158.544 7.90233C158.562 8.14489 158.466 10.7178 158.345 13.6198Z" fill="#36D9FF" fill-opacity="0.03"/>
<path d="M177.711 1.31854C177.4 2.14152 167.041 30.5644 166.868 31.0409L166.712 31.5H176.611H186.503L187.403 29.0484C187.897 27.7057 188.313 26.5535 188.339 26.4929C188.365 26.4149 186.936 26.3889 181.349 26.3889C177.486 26.3889 174.325 26.3629 174.325 26.3369C174.325 26.3109 176.412 20.5848 178.959 13.6198C181.505 6.64621 183.592 0.920052 183.592 0.885401C183.592 0.859411 182.311 0.833424 180.743 0.833424H177.885L177.711 1.31854Z" fill="#A3A3A3"/>
<path d="M177.711 1.31854C177.4 2.14152 167.041 30.5644 166.868 31.0409L166.712 31.5H176.611H186.503L187.403 29.0484C187.897 27.7057 188.313 26.5535 188.339 26.4929C188.365 26.4149 186.936 26.3889 181.349 26.3889C177.486 26.3889 174.325 26.3629 174.325 26.3369C174.325 26.3109 176.412 20.5848 178.959 13.6198C181.505 6.64621 183.592 0.920052 183.592 0.885401C183.592 0.859411 182.311 0.833424 180.743 0.833424H177.885L177.711 1.31854Z" fill="#36D9FF" fill-opacity="0.03"/>
<path d="M201.184 1.02354C201.141 1.13615 198.611 7.9625 195.563 16.2096C192.514 24.4566 189.994 31.2656 189.959 31.3523C189.898 31.4909 190.054 31.4995 192.774 31.4822L195.658 31.4562L201.27 16.3048C204.363 7.97982 206.909 1.08418 206.935 0.997549C206.987 0.841616 206.892 0.832954 204.12 0.832954H201.262L201.184 1.02354Z" fill="#A3A3A3"/>
<path d="M201.184 1.02354C201.141 1.13615 198.611 7.9625 195.563 16.2096C192.514 24.4566 189.994 31.2656 189.959 31.3523C189.898 31.4909 190.054 31.4995 192.774 31.4822L195.658 31.4562L201.27 16.3048C204.363 7.97982 206.909 1.08418 206.935 0.997549C206.987 0.841616 206.892 0.832954 204.12 0.832954H201.262L201.184 1.02354Z" fill="#36D9FF" fill-opacity="0.03"/>
<path d="M212.409 0.894278C212.383 0.928928 209.819 7.78993 206.718 16.1236C203.609 24.466 201.045 31.3356 201.028 31.3876C200.976 31.5262 212.565 31.5435 214.037 31.4136C216.367 31.197 218.558 30.53 220.447 29.4471C224.067 27.3854 227.722 22.794 229.446 18.1334C230.156 16.2189 230.779 13.5941 230.979 11.6709C231.117 10.3281 231.031 8.23173 230.797 7.11422C230.173 4.19483 228.424 2.13307 225.912 1.36207C224.5 0.928928 224.102 0.902939 218.099 0.859625C214.886 0.833637 212.435 0.850962 212.409 0.894278ZM221.754 6.04003C222.127 6.092 222.612 6.18729 222.828 6.26526C223.729 6.56846 224.552 7.4694 224.976 8.63022C225.687 10.5274 224.933 15.1707 223.391 18.4799C222.482 20.4204 221.061 22.4302 219.572 23.8769C218.498 24.9251 217.545 25.5835 216.575 25.956C215.388 26.4151 214.756 26.4844 211.508 26.5364L208.537 26.5797L208.762 25.9906C208.884 25.6614 210.581 21.1048 212.539 15.8724C214.488 10.6313 216.125 6.2566 216.168 6.14398L216.246 5.94473H218.662C219.996 5.94473 221.391 5.98805 221.754 6.04003Z" fill="#A3A3A3"/>
<path d="M212.409 0.894278C212.383 0.928928 209.819 7.78993 206.718 16.1236C203.609 24.466 201.045 31.3356 201.028 31.3876C200.976 31.5262 212.565 31.5435 214.037 31.4136C216.367 31.197 218.558 30.53 220.447 29.4471C224.067 27.3854 227.722 22.794 229.446 18.1334C230.156 16.2189 230.779 13.5941 230.979 11.6709C231.117 10.3281 231.031 8.23173 230.797 7.11422C230.173 4.19483 228.424 2.13307 225.912 1.36207C224.5 0.928928 224.102 0.902939 218.099 0.859625C214.886 0.833637 212.435 0.850962 212.409 0.894278ZM221.754 6.04003C222.127 6.092 222.612 6.18729 222.828 6.26526C223.729 6.56846 224.552 7.4694 224.976 8.63022C225.687 10.5274 224.933 15.1707 223.391 18.4799C222.482 20.4204 221.061 22.4302 219.572 23.8769C218.498 24.9251 217.545 25.5835 216.575 25.956C215.388 26.4151 214.756 26.4844 211.508 26.5364L208.537 26.5797L208.762 25.9906C208.884 25.6614 210.581 21.1048 212.539 15.8724C214.488 10.6313 216.125 6.2566 216.168 6.14398L216.246 5.94473H218.662C219.996 5.94473 221.391 5.98805 221.754 6.04003Z" fill="#36D9FF" fill-opacity="0.03"/>
<path d="M234.521 15.7509C231.412 23.9633 228.796 30.8589 228.709 31.0928L228.545 31.5L231.42 31.4827L234.305 31.4567L240.082 16.2533C243.26 7.89367 245.859 0.998018 245.859 0.937378C245.867 0.859411 245.244 0.833424 243.027 0.833424H240.177L234.521 15.7509Z" fill="#A3A3A3"/>
<path d="M234.521 15.7509C231.412 23.9633 228.796 30.8589 228.709 31.0928L228.545 31.5L231.42 31.4827L234.305 31.4567L240.082 16.2533C243.26 7.89367 245.859 0.998018 245.859 0.937378C245.867 0.859411 245.244 0.833424 243.027 0.833424H240.177L234.521 15.7509Z" fill="#36D9FF" fill-opacity="0.03"/>
<path d="M245.573 16.0628C242.385 24.4311 239.761 31.3354 239.735 31.396C239.709 31.4827 240.246 31.5 242.368 31.4827L245.036 31.4567L248.942 21.2518C252.225 12.6409 252.848 11.0816 252.909 11.2895C252.943 11.4195 253.714 15.9328 254.615 21.3211C255.524 26.7008 256.287 31.1968 256.304 31.3008L256.347 31.5H259.015H261.683L267.546 16.314C270.768 7.97163 273.427 1.06732 273.462 0.980692C273.514 0.842087 273.349 0.833424 270.846 0.833424H268.17L264.229 11.0556C261.319 18.6096 260.271 21.2258 260.228 21.0786C260.202 20.9746 259.396 16.3746 258.452 10.8564L256.737 0.833424H254.052H251.367L245.573 16.0628Z" fill="#A3A3A3"/>
<path d="M245.573 16.0628C242.385 24.4311 239.761 31.3354 239.735 31.396C239.709 31.4827 240.246 31.5 242.368 31.4827L245.036 31.4567L248.942 21.2518C252.225 12.6409 252.848 11.0816 252.909 11.2895C252.943 11.4195 253.714 15.9328 254.615 21.3211C255.524 26.7008 256.287 31.1968 256.304 31.3008L256.347 31.5H259.015H261.683L267.546 16.314C270.768 7.97163 273.427 1.06732 273.462 0.980692C273.514 0.842087 273.349 0.833424 270.846 0.833424H268.17L264.229 11.0556C261.319 18.6096 260.271 21.2258 260.228 21.0786C260.202 20.9746 259.396 16.3746 258.452 10.8564L256.737 0.833424H254.052H251.367L245.573 16.0628Z" fill="#36D9FF" fill-opacity="0.03"/>
<path d="M279.23 1.06732C279.144 1.30988 267.962 30.1659 267.616 31.0495L267.434 31.5L278.269 31.4827L289.104 31.4567L290.092 28.9445C290.637 27.5671 291.079 26.4322 291.079 26.4149C291.079 26.3976 287.459 26.3802 283.041 26.3716L275.004 26.3456L276.545 22.5772C277.394 20.5068 279.066 16.2967 280.27 13.2213C281.465 10.146 282.591 7.26128 282.764 6.81081L283.085 5.98783L290.559 5.94452L298.025 5.90121L299.013 3.38897C299.558 2.00291 300 0.868074 300 0.850748C300 0.842087 295.349 0.833424 289.659 0.833424H279.317L279.23 1.06732Z" fill="#A3A3A3"/>
<path d="M279.23 1.06732C279.144 1.30988 267.962 30.1659 267.616 31.0495L267.434 31.5L278.269 31.4827L289.104 31.4567L290.092 28.9445C290.637 27.5671 291.079 26.4322 291.079 26.4149C291.079 26.3976 287.459 26.3802 283.041 26.3716L275.004 26.3456L276.545 22.5772C277.394 20.5068 279.066 16.2967 280.27 13.2213C281.465 10.146 282.591 7.26128 282.764 6.81081L283.085 5.98783L290.559 5.94452L298.025 5.90121L299.013 3.38897C299.558 2.00291 300 0.868074 300 0.850748C300 0.842087 295.349 0.833424 289.659 0.833424H279.317L279.23 1.06732Z" fill="#36D9FF" fill-opacity="0.03"/>
<path d="M81.7715 29.6122L48.8848 58.1391L69.793 58.1651C92.9358 58.1911 91.3595 58.2257 92.7366 57.6366C94.4169 56.909 95.872 55.4623 96.8334 53.5478C97.0326 53.1406 115.065 1.96034 115.152 1.54452C115.195 1.31929 115.039 1.09406 114.823 1.09406C114.736 1.09406 99.8648 13.9324 81.7715 29.6122Z" fill="#A3A3A3"/>
<path d="M81.7715 29.6122L48.8848 58.1391L69.793 58.1651C92.9358 58.1911 91.3595 58.2257 92.7366 57.6366C94.4169 56.909 95.872 55.4623 96.8334 53.5478C97.0326 53.1406 115.065 1.96034 115.152 1.54452C115.195 1.31929 115.039 1.09406 114.823 1.09406C114.736 1.09406 99.8648 13.9324 81.7715 29.6122Z" fill="#36D9FF" fill-opacity="0.03"/>
<path d="M36.6288 14.8767C34.8532 20.4036 33.4241 24.9603 33.4414 24.9949C33.4674 25.0296 33.9784 25.0902 34.5761 25.1249C36.828 25.2461 41.1239 25.7226 41.0027 25.8352C40.9247 25.9132 37.8327 26.225 35.9185 26.3463C34.7493 26.4243 33.5887 26.5109 33.3288 26.5456L32.8611 26.6062L32.0123 29.2484C31.5446 30.6951 31.1722 31.8906 31.1808 31.8992C31.1895 31.8992 32.5233 31.9512 34.143 32.0118C37.0445 32.1158 40.0413 32.3064 40.1192 32.3843C40.2059 32.471 35.165 33.0167 32.073 33.2593L30.6872 33.3633L29.8817 35.8755C29.4399 37.2529 29.0762 38.3877 29.0762 38.3964C29.0762 38.3964 31.5013 38.3964 34.4721 38.3964C39.7122 38.3877 42.5704 38.4657 42.3192 38.6043C42.1373 38.7082 38.1791 39.358 36.265 39.5919C34.4028 39.8258 31.6139 40.1116 29.6911 40.2762L28.4352 40.3802L26.0621 47.7436C23.9054 54.4574 23.6889 55.1764 23.6456 55.8521C23.5676 57.1169 23.9487 57.8186 24.9621 58.2863C25.3865 58.4856 25.4384 58.4856 29.2061 58.5116C31.3021 58.5289 33.4154 58.5116 33.9091 58.4856L34.7926 58.425L47.2041 46.8947C54.0205 40.5534 59.607 35.3211 59.5984 35.2691C59.5897 35.1478 39.9807 4.81908 39.9114 4.81908C39.8854 4.81908 38.4043 9.3411 36.6288 14.8767Z" fill="#A3A3A3"/>
<path d="M36.6288 14.8767C34.8532 20.4036 33.4241 24.9603 33.4414 24.9949C33.4674 25.0296 33.9784 25.0902 34.5761 25.1249C36.828 25.2461 41.1239 25.7226 41.0027 25.8352C40.9247 25.9132 37.8327 26.225 35.9185 26.3463C34.7493 26.4243 33.5887 26.5109 33.3288 26.5456L32.8611 26.6062L32.0123 29.2484C31.5446 30.6951 31.1722 31.8906 31.1808 31.8992C31.1895 31.8992 32.5233 31.9512 34.143 32.0118C37.0445 32.1158 40.0413 32.3064 40.1192 32.3843C40.2059 32.471 35.165 33.0167 32.073 33.2593L30.6872 33.3633L29.8817 35.8755C29.4399 37.2529 29.0762 38.3877 29.0762 38.3964C29.0762 38.3964 31.5013 38.3964 34.4721 38.3964C39.7122 38.3877 42.5704 38.4657 42.3192 38.6043C42.1373 38.7082 38.1791 39.358 36.265 39.5919C34.4028 39.8258 31.6139 40.1116 29.6911 40.2762L28.4352 40.3802L26.0621 47.7436C23.9054 54.4574 23.6889 55.1764 23.6456 55.8521C23.5676 57.1169 23.9487 57.8186 24.9621 58.2863C25.3865 58.4856 25.4384 58.4856 29.2061 58.5116C31.3021 58.5289 33.4154 58.5116 33.9091 58.4856L34.7926 58.425L47.2041 46.8947C54.0205 40.5534 59.607 35.3211 59.5984 35.2691C59.5897 35.1478 39.9807 4.81908 39.9114 4.81908C39.8854 4.81908 38.4043 9.3411 36.6288 14.8767Z" fill="#36D9FF" fill-opacity="0.03"/>
<path d="M283.084 10.3277C283.049 10.397 279.325 19.9088 278.814 21.2603C278.684 21.5981 278.641 21.7887 278.71 21.7454C278.771 21.7107 280.979 20.3247 283.612 18.6527L288.393 15.6294L287.189 14.3559C285.275 12.3548 283.136 10.2497 283.084 10.3277Z" fill="#A3A3A3"/>
<path d="M283.084 10.3277C283.049 10.397 279.325 19.9088 278.814 21.2603C278.684 21.5981 278.641 21.7887 278.71 21.7454C278.771 21.7107 280.979 20.3247 283.612 18.6527L288.393 15.6294L287.189 14.3559C285.275 12.3548 283.136 10.2497 283.084 10.3277Z" fill="#36D9FF" fill-opacity="0.03"/>
<path d="M21.1946 24.8387C18.2151 24.8993 15.9979 25.0119 13.6593 25.2198C12.2909 25.3411 10.0909 25.601 10.0476 25.6443C10.0043 25.6876 12.8971 26.0342 14.3089 26.1728C18.449 26.5539 26.4693 26.7705 30.9125 26.6059L32.6881 26.5453L32.9133 25.8003C33.0345 25.3844 33.1298 25.0466 33.1211 25.0379C33.1125 25.0293 32.0731 24.9773 30.8086 24.9253C27.5606 24.7954 24.4512 24.7694 21.1946 24.8387Z" fill="#A3A3A3"/>
<path d="M21.1946 24.8387C18.2151 24.8993 15.9979 25.0119 13.6593 25.2198C12.2909 25.3411 10.0909 25.601 10.0476 25.6443C10.0043 25.6876 12.8971 26.0342 14.3089 26.1728C18.449 26.5539 26.4693 26.7705 30.9125 26.6059L32.6881 26.5453L32.9133 25.8003C33.0345 25.3844 33.1298 25.0466 33.1211 25.0379C33.1125 25.0293 32.0731 24.9773 30.8086 24.9253C27.5606 24.7954 24.4512 24.7694 21.1946 24.8387Z" fill="#36D9FF" fill-opacity="0.03"/>
<path d="M23.1 31.8981C16.7946 31.9933 9.25064 32.4005 4.39169 32.8943C2.5122 33.0849 0.0524068 33.3881 0.000439364 33.4314C-0.0342056 33.466 1.98386 33.6133 4.69483 33.7692C7.15462 33.9165 19.4969 33.9078 22.7102 33.7692C26.5385 33.596 30.1416 33.4054 30.3321 33.3621C30.4707 33.3361 30.5573 33.1715 30.7045 32.6604C30.8171 32.2965 30.8864 31.976 30.8604 31.9587C30.8085 31.9067 25.3519 31.8634 23.1 31.8981Z" fill="#A3A3A3"/>
<path d="M23.1 31.8981C16.7946 31.9933 9.25064 32.4005 4.39169 32.8943C2.5122 33.0849 0.0524068 33.3881 0.000439364 33.4314C-0.0342056 33.466 1.98386 33.6133 4.69483 33.7692C7.15462 33.9165 19.4969 33.9078 22.7102 33.7692C26.5385 33.596 30.1416 33.4054 30.3321 33.3621C30.4707 33.3361 30.5573 33.1715 30.7045 32.6604C30.8171 32.2965 30.8864 31.976 30.8604 31.9587C30.8085 31.9067 25.3519 31.8634 23.1 31.8981Z" fill="#36D9FF" fill-opacity="0.03"/>
<path d="M28.2965 38.4996C24.1131 38.6902 18.7085 39.1839 14.8283 39.7384C12.8795 40.0156 10.5323 40.4487 10.6016 40.518C10.8354 40.7346 18.5613 40.8472 22.4502 40.6826C25.3603 40.5613 28.106 40.4054 28.1839 40.3448C28.2619 40.2928 28.8508 38.5169 28.7989 38.4909C28.7902 38.4822 28.5563 38.4822 28.2965 38.4996Z" fill="#A3A3A3"/>
<path d="M28.2965 38.4996C24.1131 38.6902 18.7085 39.1839 14.8283 39.7384C12.8795 40.0156 10.5323 40.4487 10.6016 40.518C10.8354 40.7346 18.5613 40.8472 22.4502 40.6826C25.3603 40.5613 28.106 40.4054 28.1839 40.3448C28.2619 40.2928 28.8508 38.5169 28.7989 38.4909C28.7902 38.4822 28.5563 38.4822 28.2965 38.4996Z" fill="#36D9FF" fill-opacity="0.03"/>
<path d="M210.98 38.5169C209.23 38.7422 207.914 39.3312 206.779 40.4141C205.367 41.7568 204.622 43.4634 204.614 45.4039C204.605 46.4608 204.744 46.9632 205.263 47.7429C205.679 48.3666 206.268 48.7738 209.135 50.3937C210.685 51.2687 211.136 51.7365 211.136 52.4901C211.136 53.0965 210.902 53.6423 210.391 54.1881C209.594 55.0543 208.607 55.3662 206.926 55.3056C206.051 55.2709 205.904 55.2449 205.385 54.985C204.926 54.7598 204.77 54.6299 204.579 54.3007C204.371 53.9455 204.345 53.8156 204.354 53.1572C204.354 52.7414 204.389 52.2822 204.423 52.1176L204.484 51.8318L203.332 51.8924C202.691 51.927 201.894 51.9704 201.556 52.005L200.941 52.057L200.837 52.6461C200.716 53.3824 200.716 54.6299 200.829 55.2449C201.227 57.3413 203.072 58.5455 206.069 58.6754C208.97 58.7967 211.084 58.0084 212.885 56.1199C214.773 54.1447 215.475 51.2254 214.514 49.3455C214.141 48.6178 213.258 47.9421 211.17 46.79C208.65 45.3866 208.251 45.0227 208.26 44.1131C208.269 43.2815 208.875 42.3806 209.689 41.9907C210.46 41.6269 211.794 41.5489 212.721 41.8261C212.937 41.8868 213.249 42.0947 213.483 42.3286C213.951 42.7704 214.167 43.3508 214.167 44.1218V44.5896L214.453 44.5463C214.6 44.5203 215.371 44.477 216.159 44.4423C217.077 44.4077 217.614 44.3557 217.649 44.2864C217.761 44.1218 217.718 42.5711 217.588 41.9561C217.233 40.2668 215.943 39.028 214.124 38.6469C213.336 38.4823 211.777 38.4216 210.98 38.5169Z" fill="#A3A3A3"/>
<path d="M210.98 38.5169C209.23 38.7422 207.914 39.3312 206.779 40.4141C205.367 41.7568 204.622 43.4634 204.614 45.4039C204.605 46.4608 204.744 46.9632 205.263 47.7429C205.679 48.3666 206.268 48.7738 209.135 50.3937C210.685 51.2687 211.136 51.7365 211.136 52.4901C211.136 53.0965 210.902 53.6423 210.391 54.1881C209.594 55.0543 208.607 55.3662 206.926 55.3056C206.051 55.2709 205.904 55.2449 205.385 54.985C204.926 54.7598 204.77 54.6299 204.579 54.3007C204.371 53.9455 204.345 53.8156 204.354 53.1572C204.354 52.7414 204.389 52.2822 204.423 52.1176L204.484 51.8318L203.332 51.8924C202.691 51.927 201.894 51.9704 201.556 52.005L200.941 52.057L200.837 52.6461C200.716 53.3824 200.716 54.6299 200.829 55.2449C201.227 57.3413 203.072 58.5455 206.069 58.6754C208.97 58.7967 211.084 58.0084 212.885 56.1199C214.773 54.1447 215.475 51.2254 214.514 49.3455C214.141 48.6178 213.258 47.9421 211.17 46.79C208.65 45.3866 208.251 45.0227 208.26 44.1131C208.269 43.2815 208.875 42.3806 209.689 41.9907C210.46 41.6269 211.794 41.5489 212.721 41.8261C212.937 41.8868 213.249 42.0947 213.483 42.3286C213.951 42.7704 214.167 43.3508 214.167 44.1218V44.5896L214.453 44.5463C214.6 44.5203 215.371 44.477 216.159 44.4423C217.077 44.4077 217.614 44.3557 217.649 44.2864C217.761 44.1218 217.718 42.5711 217.588 41.9561C217.233 40.2668 215.943 39.028 214.124 38.6469C213.336 38.4823 211.777 38.4216 210.98 38.5169Z" fill="#36D9FF" fill-opacity="0.03"/>
<path d="M227.436 38.5168C224.041 38.95 221.685 41.1677 221.122 44.4682C220.897 45.8456 221.148 47.0498 221.884 47.968C222.205 48.3752 223.426 49.1982 224.907 50.0038C227.09 51.182 227.592 51.6498 227.592 52.4901C227.592 53.0965 227.358 53.6422 226.847 54.188C226.05 55.0543 225.063 55.3661 223.391 55.3055C222.075 55.2535 221.339 54.907 220.949 54.1533C220.793 53.8675 220.758 52.9579 220.871 52.2562L220.94 51.8317L219.823 51.8923C219.217 51.9183 218.42 51.9703 218.056 51.9963L217.398 52.0482L217.294 52.646C217.172 53.3823 217.172 54.6298 217.285 55.2449C217.683 57.3413 219.528 58.5541 222.525 58.6753C223.842 58.736 224.881 58.6147 225.894 58.2942C227.194 57.887 228.042 57.3759 229.056 56.4143C230.502 55.0196 231.264 53.443 231.377 51.5891C231.455 50.2983 231.16 49.3628 230.441 48.6437C230.034 48.2366 228.813 47.4223 227.774 46.8592C225.946 45.8803 225.097 45.2739 224.864 44.7888C224.517 44.0524 224.786 43.1342 225.557 42.4325C226.163 41.878 226.752 41.6875 227.852 41.6788C228.856 41.6788 229.376 41.8174 229.844 42.2159C230.346 42.649 230.545 43.0908 230.606 43.9051L230.649 44.5809L230.918 44.5462C231.065 44.5202 231.827 44.4769 232.615 44.4422C233.534 44.4076 234.071 44.3556 234.105 44.2863C234.218 44.1131 234.174 42.4758 234.045 41.904C233.646 40.2234 232.373 39.0279 230.58 38.6468C229.792 38.4822 228.233 38.4215 227.436 38.5168Z" fill="#A3A3A3"/>
<path d="M227.436 38.5168C224.041 38.95 221.685 41.1677 221.122 44.4682C220.897 45.8456 221.148 47.0498 221.884 47.968C222.205 48.3752 223.426 49.1982 224.907 50.0038C227.09 51.182 227.592 51.6498 227.592 52.4901C227.592 53.0965 227.358 53.6422 226.847 54.188C226.05 55.0543 225.063 55.3661 223.391 55.3055C222.075 55.2535 221.339 54.907 220.949 54.1533C220.793 53.8675 220.758 52.9579 220.871 52.2562L220.94 51.8317L219.823 51.8923C219.217 51.9183 218.42 51.9703 218.056 51.9963L217.398 52.0482L217.294 52.646C217.172 53.3823 217.172 54.6298 217.285 55.2449C217.683 57.3413 219.528 58.5541 222.525 58.6753C223.842 58.736 224.881 58.6147 225.894 58.2942C227.194 57.887 228.042 57.3759 229.056 56.4143C230.502 55.0196 231.264 53.443 231.377 51.5891C231.455 50.2983 231.16 49.3628 230.441 48.6437C230.034 48.2366 228.813 47.4223 227.774 46.8592C225.946 45.8803 225.097 45.2739 224.864 44.7888C224.517 44.0524 224.786 43.1342 225.557 42.4325C226.163 41.878 226.752 41.6875 227.852 41.6788C228.856 41.6788 229.376 41.8174 229.844 42.2159C230.346 42.649 230.545 43.0908 230.606 43.9051L230.649 44.5809L230.918 44.5462C231.065 44.5202 231.827 44.4769 232.615 44.4422C233.534 44.4076 234.071 44.3556 234.105 44.2863C234.218 44.1131 234.174 42.4758 234.045 41.904C233.646 40.2234 232.373 39.0279 230.58 38.6468C229.792 38.4822 228.233 38.4215 227.436 38.5168Z" fill="#36D9FF" fill-opacity="0.03"/>
<path d="M123.111 38.837C123.077 38.889 117.317 53.5553 115.775 57.5055L115.446 58.3545H122.358H129.27L129.885 56.8038C130.222 55.9549 130.5 55.2359 130.5 55.2012C130.5 55.1752 128.222 55.1492 125.45 55.1492C122.67 55.1492 120.375 55.1319 120.349 55.1059C120.323 55.0799 120.799 53.8585 121.397 52.3944C122.003 50.9304 123.172 48.011 124.004 45.8973L125.502 42.0683H130.24H134.969L135.592 40.483C135.939 39.608 136.216 38.863 136.216 38.837C136.216 38.7504 123.155 38.7591 123.111 38.837Z" fill="#A3A3A3"/>
<path d="M123.111 38.837C123.077 38.889 117.317 53.5553 115.775 57.5055L115.446 58.3545H122.358H129.27L129.885 56.8038C130.222 55.9549 130.5 55.2359 130.5 55.2012C130.5 55.1752 128.222 55.1492 125.45 55.1492C122.67 55.1492 120.375 55.1319 120.349 55.1059C120.323 55.0799 120.799 53.8585 121.397 52.3944C122.003 50.9304 123.172 48.011 124.004 45.8973L125.502 42.0683H130.24H134.969L135.592 40.483C135.939 39.608 136.216 38.863 136.216 38.837C136.216 38.7504 123.155 38.7591 123.111 38.837Z" fill="#36D9FF" fill-opacity="0.03"/>
<path d="M137.601 38.9063C137.601 38.9756 138.13 41.15 138.779 43.7316L139.949 48.4268L138.493 49.8995C137.697 50.7138 135.479 52.9489 133.574 54.8634L130.109 58.3545H132.509H134.908L136.493 56.8038C137.367 55.9462 138.719 54.5688 139.507 53.7372C140.295 52.8969 140.945 52.2298 140.962 52.2472C140.979 52.2558 141.075 52.715 141.187 53.2607C141.3 53.8065 141.612 55.1752 141.889 56.3014L142.382 58.3545H144.452C146.063 58.3545 146.505 58.3285 146.479 58.2419C146.393 57.9993 144.097 49.2671 144.097 49.1892C144.097 49.1372 146.384 46.7896 149.173 43.9568L154.248 38.8197L151.979 38.7937L149.71 38.7764L148.757 39.66C148.229 40.1538 146.756 41.6265 145.492 42.9346C144.227 44.2513 143.153 45.3342 143.101 45.3429C143.058 45.3602 142.815 44.5372 142.573 43.5237C142.33 42.5101 141.958 41.0287 141.75 40.2231L141.369 38.7764H139.489C137.861 38.7764 137.601 38.7937 137.601 38.9063Z" fill="#A3A3A3"/>
<path d="M137.601 38.9063C137.601 38.9756 138.13 41.15 138.779 43.7316L139.949 48.4268L138.493 49.8995C137.697 50.7138 135.479 52.9489 133.574 54.8634L130.109 58.3545H132.509H134.908L136.493 56.8038C137.367 55.9462 138.719 54.5688 139.507 53.7372C140.295 52.8969 140.945 52.2298 140.962 52.2472C140.979 52.2558 141.075 52.715 141.187 53.2607C141.3 53.8065 141.612 55.1752 141.889 56.3014L142.382 58.3545H144.452C146.063 58.3545 146.505 58.3285 146.479 58.2419C146.393 57.9993 144.097 49.2671 144.097 49.1892C144.097 49.1372 146.384 46.7896 149.173 43.9568L154.248 38.8197L151.979 38.7937L149.71 38.7764L148.757 39.66C148.229 40.1538 146.756 41.6265 145.492 42.9346C144.227 44.2513 143.153 45.3342 143.101 45.3429C143.058 45.3602 142.815 44.5372 142.573 43.5237C142.33 42.5101 141.958 41.0287 141.75 40.2231L141.369 38.7764H139.489C137.861 38.7764 137.601 38.7937 137.601 38.9063Z" fill="#36D9FF" fill-opacity="0.03"/>
<path d="M155.972 38.967C155.929 39.0796 154.344 43.0992 152.455 47.9157C150.567 52.7323 148.87 57.0464 148.688 57.5055L148.359 58.3545H150.186H152.022L153.486 54.6295L154.95 50.9044H157.098C158.276 50.9044 159.627 50.8611 160.112 50.8178C163.152 50.5059 165.066 49.2585 166.573 46.6163C167.613 44.7884 168.046 42.7613 167.699 41.306C167.396 40.0325 166.694 39.3481 165.3 38.9756C164.841 38.8544 164.096 38.8284 160.406 38.8024L156.05 38.7677L155.972 38.967ZM162.269 42.0683C163.169 42.1549 163.524 42.3108 163.819 42.7613C164.33 43.5063 163.758 45.2649 162.658 46.3304C162.156 46.8155 161.376 47.24 160.71 47.396C159.904 47.5779 156.223 47.8031 156.223 47.6732C156.223 47.6299 158.397 42.1289 158.44 42.051C158.501 41.9557 161.273 41.9643 162.269 42.0683Z" fill="#A3A3A3"/>
<path d="M155.972 38.967C155.929 39.0796 154.344 43.0992 152.455 47.9157C150.567 52.7323 148.87 57.0464 148.688 57.5055L148.359 58.3545H150.186H152.022L153.486 54.6295L154.95 50.9044H157.098C158.276 50.9044 159.627 50.8611 160.112 50.8178C163.152 50.5059 165.066 49.2585 166.573 46.6163C167.613 44.7884 168.046 42.7613 167.699 41.306C167.396 40.0325 166.694 39.3481 165.3 38.9756C164.841 38.8544 164.096 38.8284 160.406 38.8024L156.05 38.7677L155.972 38.967ZM162.269 42.0683C163.169 42.1549 163.524 42.3108 163.819 42.7613C164.33 43.5063 163.758 45.2649 162.658 46.3304C162.156 46.8155 161.376 47.24 160.71 47.396C159.904 47.5779 156.223 47.8031 156.223 47.6732C156.223 47.6299 158.397 42.1289 158.44 42.051C158.501 41.9557 161.273 41.9643 162.269 42.0683Z" fill="#36D9FF" fill-opacity="0.03"/>
<path d="M172.515 38.967C172.472 39.0796 170.895 43.0992 168.999 47.9157C167.11 52.7323 165.413 57.0464 165.231 57.5055L164.902 58.3545H166.729H168.566L170.142 54.3436L171.718 50.3413L172.853 50.3153C174.109 50.2894 174.533 50.3673 174.923 50.6965C175.269 50.9824 175.668 51.814 175.876 52.6803C176.092 53.5639 176.638 56.8038 176.716 57.6788L176.776 58.3545H178.743H180.709L180.466 56.9424C179.842 53.3214 179.34 51.5628 178.509 50.1248C178.491 50.0988 178.907 49.9775 179.435 49.8562C182.276 49.1632 184.225 47.2573 184.935 44.4419C185.628 41.7131 184.953 39.6687 183.177 39.1229C182.233 38.8284 181.28 38.7764 176.854 38.7764H172.593L172.515 38.967ZM180.224 42.1549C181.436 42.3802 181.783 43.3591 181.133 44.7278C180.527 45.9926 179.349 46.8762 177.911 47.1447C177.14 47.2833 172.939 47.4219 172.939 47.3093C172.939 47.266 173.39 46.0705 173.953 44.6498L174.958 42.0683H177.357C178.682 42.0683 179.972 42.1116 180.224 42.1549Z" fill="#A3A3A3"/>
<path d="M172.515 38.967C172.472 39.0796 170.895 43.0992 168.999 47.9157C167.11 52.7323 165.413 57.0464 165.231 57.5055L164.902 58.3545H166.729H168.566L170.142 54.3436L171.718 50.3413L172.853 50.3153C174.109 50.2894 174.533 50.3673 174.923 50.6965C175.269 50.9824 175.668 51.814 175.876 52.6803C176.092 53.5639 176.638 56.8038 176.716 57.6788L176.776 58.3545H178.743H180.709L180.466 56.9424C179.842 53.3214 179.34 51.5628 178.509 50.1248C178.491 50.0988 178.907 49.9775 179.435 49.8562C182.276 49.1632 184.225 47.2573 184.935 44.4419C185.628 41.7131 184.953 39.6687 183.177 39.1229C182.233 38.8284 181.28 38.7764 176.854 38.7764H172.593L172.515 38.967ZM180.224 42.1549C181.436 42.3802 181.783 43.3591 181.133 44.7278C180.527 45.9926 179.349 46.8762 177.911 47.1447C177.14 47.2833 172.939 47.4219 172.939 47.3093C172.939 47.266 173.39 46.0705 173.953 44.6498L174.958 42.0683H177.357C178.682 42.0683 179.972 42.1116 180.224 42.1549Z" fill="#36D9FF" fill-opacity="0.03"/>
<path d="M190.314 38.8457C190.288 38.889 183.16 57.0204 182.718 58.1639L182.64 58.3545H189.56H196.481L197.052 56.8991C197.364 56.1021 197.641 55.3831 197.676 55.3052C197.728 55.1579 197.451 55.1492 192.6 55.1492C188.53 55.1492 187.482 55.1232 187.516 55.0366C187.533 54.9846 188.036 53.7718 188.616 52.3598L189.681 49.7782L194.263 49.7609L198.845 49.7349L199.451 48.1929C199.78 47.344 200.049 46.6076 200.049 46.5643C200.049 46.521 198.195 46.4864 195.51 46.4864H190.972L191.492 45.1609C191.778 44.4419 192.167 43.4457 192.358 42.9519L192.704 42.0683H197.442H202.171L202.751 40.5696C203.072 39.7553 203.358 39.0103 203.392 38.9237C203.444 38.7851 203.098 38.7764 196.905 38.7764C193.302 38.7764 190.34 38.8024 190.314 38.8457Z" fill="#A3A3A3"/>
<path d="M190.314 38.8457C190.288 38.889 183.16 57.0204 182.718 58.1639L182.64 58.3545H189.56H196.481L197.052 56.8991C197.364 56.1021 197.641 55.3831 197.676 55.3052C197.728 55.1579 197.451 55.1492 192.6 55.1492C188.53 55.1492 187.482 55.1232 187.516 55.0366C187.533 54.9846 188.036 53.7718 188.616 52.3598L189.681 49.7782L194.263 49.7609L198.845 49.7349L199.451 48.1929C199.78 47.344 200.049 46.6076 200.049 46.5643C200.049 46.521 198.195 46.4864 195.51 46.4864H190.972L191.492 45.1609C191.778 44.4419 192.167 43.4457 192.358 42.9519L192.704 42.0683H197.442H202.171L202.751 40.5696C203.072 39.7553 203.358 39.0103 203.392 38.9237C203.444 38.7851 203.098 38.7764 196.905 38.7764C193.302 38.7764 190.34 38.8024 190.314 38.8457Z" fill="#36D9FF" fill-opacity="0.03"/>
<path d="M125.008 48.4617C124.202 50.5408 123.484 52.3773 123.423 52.5332C123.319 52.7758 123.319 52.8105 123.423 52.7498C123.484 52.7152 124.817 51.8056 126.376 50.74C128.161 49.5186 129.191 48.7562 129.165 48.6869C129.122 48.5656 126.524 44.6673 126.489 44.6673C126.48 44.6673 125.813 46.3739 125.008 48.4617Z" fill="#A3A3A3"/>
<path d="M125.008 48.4617C124.202 50.5408 123.484 52.3773 123.423 52.5332C123.319 52.7758 123.319 52.8105 123.423 52.7498C123.484 52.7152 124.817 51.8056 126.376 50.74C128.161 49.5186 129.191 48.7562 129.165 48.6869C129.122 48.5656 126.524 44.6673 126.489 44.6673C126.48 44.6673 125.813 46.3739 125.008 48.4617Z" fill="#36D9FF" fill-opacity="0.03"/>
</g>
<defs>
<clipPath id="clip0_2389_7276">
<rect width="300" height="58.6903" fill="white"/>
</clipPath>
</defs>
</svg>
